<?xml version="1.0" encoding="UTF-8" standalone="no"?>
<!-- Generator: Adobe Illustrator 25.2.1, SVG Export Plug-In . SVG Version: 6.00 Build 0)  -->

<svg
   xmlns:dc="http://purl.org/dc/elements/1.1/"
   xmlns:cc="http://creativecommons.org/ns#"
   xmlns:rdf="http://www.w3.org/1999/02/22-rdf-syntax-ns#"
   xmlns:svg="http://www.w3.org/2000/svg"
   xmlns="http://www.w3.org/2000/svg"
   xmlns:xlink="http://www.w3.org/1999/xlink"
   xmlns:sodipodi="http://sodipodi.sourceforge.net/DTD/sodipodi-0.dtd"
   xmlns:inkscape="http://www.inkscape.org/namespaces/inkscape"
   version="1.1"
   id="Ebene_1"
   x="0px"
   y="0px"
   viewBox="0 0 388.50999 57.679797"
   xml:space="preserve"
   sodipodi:docname="roadabout_textlogo_1.svg"
   width="388.51001"
   height="57.679798"
   inkscape:version="0.92.2 5c3e80d, 2017-08-06"><metadata
     id="metadata241"><rdf:RDF><cc:Work
         rdf:about=""><dc:format>image/svg+xml</dc:format><dc:type
           rdf:resource="http://purl.org/dc/dcmitype/StillImage" /><dc:title></dc:title></cc:Work></rdf:RDF></metadata><defs
     id="defs239" /><sodipodi:namedview
     pagecolor="#ffffff"
     bordercolor="#666666"
     borderopacity="1"
     objecttolerance="10"
     gridtolerance="10"
     guidetolerance="10"
     inkscape:pageopacity="0"
     inkscape:pageshadow="2"
     inkscape:window-width="640"
     inkscape:window-height="480"
     id="namedview237"
     showgrid="false"
     inkscape:zoom="0.28032165"
     inkscape:cx="243.11001"
     inkscape:cy="-150.49521"
     inkscape:window-x="0"
     inkscape:window-y="0"
     inkscape:window-maximized="0"
     inkscape:current-layer="Ebene_1" /><style
     type="text/css"
     id="style2">
	.st0{fill:#ECECEC;}
	.st1{display:none;fill:#ECECEC;}
	.st2{clip-path:url(#SVGID_2_);}
	.st3{clip-path:url(#SVGID_4_);fill:#EDEDED;}
	.st4{clip-path:url(#SVGID_4_);fill:#B2B2B2;}
	.st5{clip-path:url(#SVGID_4_);fill:#70868F;}
	.st6{clip-path:url(#SVGID_4_);fill:#F8FAFA;}
	.st7{clip-path:url(#SVGID_4_);fill:#C4CECC;}
	.st8{clip-path:url(#SVGID_4_);fill:#DADADA;}
	.st9{clip-path:url(#SVGID_4_);fill:#EB6763;}
	.st10{clip-path:url(#SVGID_4_);fill:none;stroke:#9D9D9C;stroke-width:0.3017;stroke-miterlimit:10;}
	.st11{display:none;}
	.st12{display:inline;}
	.st13{clip-path:url(#SVGID_6_);}
	.st14{clip-path:url(#SVGID_8_);fill:#EDEDED;}
	.st15{clip-path:url(#SVGID_8_);fill:#B2B2B2;}
	.st16{clip-path:url(#SVGID_8_);fill:#70868F;}
	.st17{clip-path:url(#SVGID_8_);fill:#F8FAFA;}
	.st18{clip-path:url(#SVGID_8_);fill:#C4CECC;}
	.st19{clip-path:url(#SVGID_8_);fill:#DADADA;}
	.st20{clip-path:url(#SVGID_8_);fill:#EB6763;}
	.st21{clip-path:url(#SVGID_8_);fill:none;stroke:#9D9D9C;stroke-width:0.3017;stroke-miterlimit:10;}
</style><g
     id="g22"
     transform="translate(-54.53,-212.77)"><path
       class="st0"
       d="m 54.53,237.45 c 0,-5.62 2.01,-8.32 6.36,-8.32 2.49,0 4.51,1.17 6.03,3.65 2.65,-2.56 5.63,-3.87 8.61,-3.87 3.54,0 6.44,2.63 6.44,5.69 0,4.6 -5.63,4.96 -10.78,7.15 -3.54,1.53 -3.94,2.92 -3.94,6.86 v 11.97 c 0,5.62 -2.01,8.4 -6.36,8.4 -4.35,0 -6.36,-2.77 -6.36,-8.4 z"
       id="path4"
       inkscape:connector-curvature="0"
       style="fill:#ececec" /><path
       class="st0"
       d="m 104.09,228.47 c 12.55,0 21.4,8.61 21.4,20.59 0,11.98 -8.85,20.59 -21.4,20.59 -12.47,0 -21.48,-8.61 -21.48,-20.59 0,-11.98 9.01,-20.59 21.48,-20.59 z m 0,30.22 c 4.83,0 8.37,-3.8 8.37,-9.78 0,-5.84 -3.7,-9.64 -8.37,-9.64 -4.67,0 -8.37,3.65 -8.37,9.64 0,6.06 3.54,9.78 8.37,9.78 z"
       id="path6"
       inkscape:connector-curvature="0"
       style="fill:#ececec" /><path
       class="st0"
       d="m 148.5,269.35 c -10.38,0 -19.23,-8.25 -19.23,-20.29 0,-11.68 8.93,-20.37 19.71,-20.37 4.35,0 7.56,1.31 10.14,4.09 1.45,-2.34 3.46,-3.65 6.03,-3.65 4.35,0 6.28,2.7 6.28,8.32 v 23.14 c 0,5.62 -2.01,8.4 -6.28,8.4 -2.82,0 -4.67,-1.24 -6.03,-4.02 -2.58,2.85 -6.28,4.38 -10.62,4.38 z m 2.09,-11.02 c 4.67,0 8.13,-3.72 8.13,-9.42 0,-5.62 -3.54,-9.2 -8.13,-9.2 -4.59,0 -8.21,3.5 -8.21,9.2 0,5.84 3.54,9.42 8.21,9.42 z"
       id="path8"
       inkscape:connector-curvature="0"
       style="fill:#ececec" /><path
       class="st0"
       d="m 197.25,269.2 c -10.3,0 -19.55,-8.76 -19.55,-20.51 0,-11.68 9.01,-20.29 19.55,-20.29 3.86,0 7.08,1.02 9.98,3.28 v -10.51 c 0,-5.62 2.01,-8.4 6.36,-8.4 4.26,0 6.28,2.77 6.28,8.4 v 39.42 c 0,5.62 -1.93,8.4 -6.28,8.4 -2.49,0 -4.59,-1.31 -6.03,-3.72 -2.59,2.55 -6.13,3.93 -10.31,3.93 z m 1.85,-10.73 c 4.75,0 8.29,-3.72 8.29,-9.64 0,-6.06 -3.54,-9.78 -8.29,-9.78 -4.75,0 -8.37,3.8 -8.37,9.78 0,5.85 3.62,9.64 8.37,9.64 z"
       id="path10"
       inkscape:connector-curvature="0"
       style="fill:#ececec" /><path
       class="st0"
       d="m 245.36,269.35 c -10.38,0 -19.23,-8.25 -19.23,-20.29 0,-11.68 8.93,-20.37 19.71,-20.37 4.35,0 7.56,1.31 10.14,4.09 1.45,-2.34 3.46,-3.65 6.03,-3.65 4.35,0 6.28,2.7 6.28,8.32 v 23.14 c 0,5.62 -2.01,8.4 -6.28,8.4 -2.82,0 -4.67,-1.24 -6.03,-4.02 -2.58,2.85 -6.28,4.38 -10.62,4.38 z m 2.09,-11.02 c 4.67,0 8.13,-3.72 8.13,-9.42 0,-5.62 -3.54,-9.2 -8.13,-9.2 -4.59,0 -8.21,3.5 -8.21,9.2 0,5.84 3.54,9.42 8.21,9.42 z"
       id="path12"
       inkscape:connector-curvature="0"
       style="fill:#ececec" /><path
       class="st0"
       d="m 299.74,228.4 c 10.62,0 19.47,8.54 19.47,20.66 0,11.31 -9.09,20.15 -19.47,20.15 -4.18,0 -7.8,-1.39 -10.3,-3.94 -1.53,2.41 -3.54,3.72 -6.03,3.72 -4.34,0 -6.36,-2.77 -6.36,-8.4 v -39.42 c 0,-5.62 2.01,-8.4 6.36,-8.4 4.35,0 6.36,2.77 6.36,8.4 v 10.51 c 2.49,-1.97 5.71,-3.28 9.97,-3.28 z m -1.85,30.07 c 4.75,0 8.37,-3.8 8.37,-9.64 0,-5.99 -3.62,-9.78 -8.37,-9.78 -4.75,0 -8.37,3.72 -8.37,9.78 0,5.99 3.63,9.64 8.37,9.64 z"
       id="path14"
       inkscape:connector-curvature="0"
       style="fill:#ececec" /><path
       class="st1"
       d="m 344.47,228.47 c 12.55,0 21.4,8.61 21.4,20.59 0,11.98 -8.85,20.59 -21.4,20.59 -12.47,0 -21.48,-8.61 -21.48,-20.59 0,-11.98 9.01,-20.59 21.48,-20.59 z m 0,30.22 c 4.83,0 8.37,-3.8 8.37,-9.78 0,-5.84 -3.7,-9.64 -8.37,-9.64 -4.67,0 -8.37,3.65 -8.37,9.64 0.01,6.06 3.55,9.78 8.37,9.78 z"
       id="path16"
       inkscape:connector-curvature="0"
       style="display:none;fill:#ececec" /><path
       class="st0"
       d="m 371.9,237.45 c 0,-5.62 2.01,-8.32 6.36,-8.32 4.26,0 6.28,2.7 6.28,8.32 v 12.99 c 0,5.4 1.37,8.4 6.52,8.4 5.15,0 6.52,-2.99 6.52,-8.4 v -12.99 c 0,-5.62 2.01,-8.32 6.36,-8.32 4.35,0 6.28,2.7 6.28,8.32 v 15.33 c 0,11.02 -6.84,16.86 -19.15,16.86 -12.31,0 -19.15,-5.84 -19.15,-16.86 v -15.33 z"
       id="path18"
       inkscape:connector-curvature="0"
       style="fill:#ececec" /><path
       class="st0"
       d="m 420.82,240.22 c -4.51,0 -7.16,-1.97 -7.16,-4.96 0,-3.14 2.58,-4.89 7.64,-5.11 v -5.04 c 0,-5.62 2.01,-8.39 6.36,-8.39 4.26,0 6.28,2.77 6.28,8.39 v 5.04 h 1.13 c 5.07,0 7.97,1.97 7.97,5.11 0,3.21 -2.66,4.96 -8.05,4.96 h -1.05 v 20.37 c 0,5.62 -1.93,8.4 -6.28,8.4 -4.34,0 -6.36,-2.77 -6.36,-8.4 v -20.37 z"
       id="path20"
       inkscape:connector-curvature="0"
       style="fill:#ececec" /></g><g
     id="g128"
     transform="translate(-54.53,-212.77)"><g
       id="g126"><defs
         id="defs25"><rect
           id="SVGID_1_"
           x="299.48999"
           y="179.08"
           width="89.790001"
           height="126.99" /></defs><clipPath
         id="SVGID_2_"><use
           xlink:href="#SVGID_1_"
           style="overflow:visible"
           id="use27"
           x="0"
           y="0"
           width="100%"
           height="100%" /></clipPath><g
         class="st2"
         clip-path="url(#SVGID_2_)"
         id="g124"><defs
           id="defs31"><rect
             id="SVGID_3_"
             x="299.48999"
             y="179.08"
             width="89.790001"
             height="126.99" /></defs><clipPath
           id="SVGID_4_"><use
             xlink:href="#SVGID_3_"
             style="overflow:visible"
             id="use33"
             x="0"
             y="0"
             width="100%"
             height="100%" /></clipPath><path
           class="st3"
           d="m 336.7,229.05 c 2.41,-1.02 4.94,-1.44 7.53,-1.45 3.35,-0.02 6.56,0.63 9.55,2.2 -1.03,0.65 -2.07,1.59 -3.29,1.46 -1.99,-0.21 -3,0.59 -3.58,2.37 -0.17,0.53 -0.08,0.68 0.37,0.88 1.18,0.53 2.34,0.4 3.51,0.01 0.45,-0.15 0.92,-0.3 1.4,-0.11 1.29,0.5 2.68,0.64 3.99,1.04 1.27,0.39 2.17,0.03 3.07,-0.74 0.19,-0.16 0.38,-0.33 0.57,-0.49 1.35,1.27 2.43,2.74 3.24,4.41 -1.3,0.45 -2.57,1.01 -3.9,1.34 -1.68,0.41 -3.31,-0.27 -4.97,-0.47 -0.15,-0.02 -0.29,-0.11 -0.33,-0.27 -0.14,-0.65 -0.74,-1 -1.03,-1.54 -0.23,-0.42 -0.61,-0.55 -1.07,-0.54 -1,0.01 -2.01,0 -3.01,0.01 -0.61,0.01 -2.75,1.81 -2.87,2.41 -0.01,0.07 -0.02,0.15 -0.01,0.22 0.23,1.48 0.45,2.97 0.68,4.45 0.04,0.26 0.14,0.46 0.41,0.57 1.41,0.59 2.81,1.19 4.21,1.8 0.41,0.18 0.79,0.2 1.22,0.07 0.57,-0.17 1.17,-0.28 1.76,-0.4 1.14,-0.24 1.74,0.73 2.57,1.17 0.42,0.22 0.19,0.84 0.19,1.27 -0.01,0.98 0.03,1.92 0.54,2.83 0.7,1.24 1.28,2.55 1.93,3.82 0.36,0.71 0.62,1.43 0.52,2.23 -0.14,1.17 0.09,2.17 1.11,2.9 0.32,0.23 0.55,0.57 0.83,0.86 -1.73,2.59 -3.98,4.64 -6.67,6.17 -5.55,3.16 -11.39,3.72 -17.49,1.85 -8.05,-2.47 -14.28,-10.54 -14.69,-18.98 -0.15,-3.07 0.26,-6.05 1.34,-8.92 0.09,-0.23 0.12,-0.49 0.34,-0.65 0.37,1.06 0.75,2.12 1.11,3.18 0.1,0.29 0.18,0.59 0.45,0.76 1.2,0.78 2.4,1.54 3.59,2.31 0.31,0.2 0.51,0.2 0.52,-0.24 0.04,-1.23 0.14,-2.43 -1.09,-3.3 -0.79,-0.57 -0.42,-1.55 -0.34,-2.33 0.07,-0.63 0.78,-0.47 1.25,-0.54 1.36,-0.21 2.82,-0.14 4.05,-0.71 2.19,-1.02 4.18,-2.39 5.14,-4.78 0.29,-0.72 0.76,-1.2 1.51,-1.29 1.17,-0.15 1.54,-0.96 1.78,-1.93 0.11,-0.43 0.03,-0.66 -0.45,-0.73 -1.11,-0.17 -2.23,-0.33 -3.33,-0.58 -0.91,-0.21 -1.69,-0.71 -2.16,-1.6 m -2.66,29.88 c 0.07,1.54 -0.29,3.3 0.58,4.92 0.2,0.37 0.44,0.76 0.51,1.16 0.21,1.19 1.13,1.33 2.05,1.52 0.39,0.08 0.56,-0.06 0.55,-0.46 -0.01,-0.8 0.02,-1.6 0,-2.41 -0.01,-0.45 0.16,-0.75 0.52,-1.01 0.66,-0.49 1.29,-1.03 1.95,-1.52 0.29,-0.21 0.49,-0.46 0.43,-0.81 -0.26,-1.39 0.44,-2.32 1.44,-3.13 0.35,-0.28 0.65,-0.62 0.95,-0.96 0.23,-0.26 0.56,-0.44 0.63,-0.82 0.18,-0.91 0.37,-1.81 0.56,-2.72 0.1,-0.5 -0.14,-0.68 -0.62,-0.67 -0.55,0.02 -1.1,-0.02 -1.65,0.01 -0.37,0.02 -0.58,-0.12 -0.77,-0.45 -0.52,-0.91 -1.12,-1.78 -1.61,-2.71 -0.25,-0.46 -0.57,-0.57 -1.03,-0.57 -1.23,0.01 -2.46,-0.04 -3.68,0.01 -0.66,0.02 -1.02,-0.22 -1.25,-0.82 -0.18,-0.47 -0.45,-0.9 -0.66,-1.35 -0.25,-0.54 -0.51,-0.67 -0.98,-0.16 -0.8,0.86 -1.64,1.69 -2.49,2.5 -0.39,0.38 -0.53,0.81 -0.59,1.33 -0.17,1.46 0.65,2.58 1.22,3.8 0.18,0.4 0.49,0.61 0.91,0.7 0.76,0.15 1.51,0.34 2.28,0.48 0.53,0.09 0.78,0.33 0.76,0.9 -0.04,1.02 -0.01,2.05 -0.01,3.24"
           clip-path="url(#SVGID_4_)"
           id="path36"
           inkscape:connector-curvature="0"
           style="fill:#ededed" /><path
           class="st4"
           d="m 361.84,261.37 c -0.27,-0.29 -0.51,-0.63 -0.83,-0.86 -1.02,-0.73 -1.25,-1.73 -1.11,-2.9 0.09,-0.8 -0.16,-1.53 -0.52,-2.23 -0.65,-1.27 -1.23,-2.58 -1.93,-3.82 -0.51,-0.91 -0.55,-1.85 -0.54,-2.83 0,-0.43 0.23,-1.05 -0.19,-1.27 -0.83,-0.44 -1.44,-1.41 -2.57,-1.17 -0.59,0.12 -1.18,0.23 -1.76,0.4 -0.43,0.13 -0.81,0.11 -1.22,-0.07 -1.4,-0.61 -2.8,-1.21 -4.21,-1.8 -0.27,-0.11 -0.37,-0.31 -0.41,-0.58 -0.23,-1.48 -0.46,-2.97 -0.68,-4.45 -0.01,-0.07 0,-0.15 0.01,-0.22 0.12,-0.6 2.26,-2.4 2.87,-2.41 1,-0.01 2.01,0 3.01,-0.01 0.46,-0.01 0.84,0.12 1.07,0.54 0.3,0.55 0.89,0.89 1.03,1.54 0.04,0.16 0.17,0.26 0.33,0.27 1.65,0.2 3.29,0.89 4.97,0.47 1.33,-0.33 2.6,-0.88 3.9,-1.34 1.37,2.31 2.16,4.82 2.53,7.47 0.62,4.48 -0.17,8.72 -2.15,12.75 -0.45,0.88 -1.06,1.68 -1.6,2.52"
           clip-path="url(#SVGID_4_)"
           id="path38"
           inkscape:connector-curvature="0"
           style="fill:#b2b2b2" /><path
           class="st4"
           d="m 336.7,229.05 c 0.47,0.88 1.25,1.39 2.19,1.6 1.1,0.25 2.21,0.41 3.33,0.58 0.47,0.07 0.55,0.3 0.45,0.73 -0.24,0.98 -0.61,1.79 -1.78,1.93 -0.75,0.09 -1.22,0.58 -1.51,1.29 -0.96,2.39 -2.94,3.76 -5.14,4.78 -1.23,0.57 -2.69,0.5 -4.05,0.71 -0.47,0.07 -1.18,-0.08 -1.25,0.54 -0.08,0.78 -0.45,1.76 0.34,2.33 1.22,0.87 1.12,2.07 1.09,3.3 -0.01,0.44 -0.21,0.44 -0.52,0.24 -1.2,-0.77 -2.4,-1.54 -3.59,-2.31 -0.27,-0.17 -0.35,-0.47 -0.45,-0.76 -0.37,-1.06 -0.74,-2.12 -1.11,-3.18 2.32,-5.63 6.38,-9.5 12,-11.78"
           clip-path="url(#SVGID_4_)"
           id="path40"
           inkscape:connector-curvature="0"
           style="fill:#b2b2b2" /><path
           class="st4"
           d="m 359.82,234.22 c -0.19,0.16 -0.38,0.33 -0.57,0.49 -0.9,0.77 -1.8,1.12 -3.07,0.74 -1.31,-0.4 -2.7,-0.54 -3.99,-1.04 -0.48,-0.18 -0.95,-0.04 -1.4,0.11 -1.17,0.39 -2.33,0.52 -3.51,-0.01 -0.45,-0.2 -0.54,-0.35 -0.37,-0.88 0.58,-1.78 1.59,-2.58 3.58,-2.37 1.22,0.13 2.26,-0.81 3.29,-1.46 2.28,1.1 4.31,2.55 6.04,4.42"
           clip-path="url(#SVGID_4_)"
           id="path42"
           inkscape:connector-curvature="0"
           style="fill:#b2b2b2" /><path
           class="st4"
           d="m 334.04,258.93 c 0,-1.19 -0.02,-2.22 0.01,-3.25 0.02,-0.57 -0.23,-0.81 -0.76,-0.9 -0.76,-0.13 -1.52,-0.32 -2.28,-0.48 -0.42,-0.09 -0.73,-0.3 -0.91,-0.7 -0.56,-1.21 -1.38,-2.34 -1.22,-3.8 0.06,-0.52 0.2,-0.95 0.59,-1.33 0.85,-0.81 1.69,-1.64 2.49,-2.5 0.47,-0.51 0.72,-0.38 0.98,0.16 0.21,0.45 0.48,0.88 0.66,1.35 0.23,0.59 0.59,0.84 1.25,0.82 1.23,-0.05 2.46,0 3.68,-0.01 0.46,0 0.78,0.11 1.03,0.57 0.49,0.93 1.1,1.79 1.61,2.71 0.19,0.33 0.4,0.47 0.77,0.45 0.55,-0.03 1.1,0.01 1.65,-0.01 0.48,-0.01 0.72,0.17 0.62,0.67 -0.18,0.91 -0.37,1.81 -0.56,2.72 -0.08,0.38 -0.4,0.56 -0.63,0.82 -0.3,0.34 -0.6,0.68 -0.95,0.96 -1,0.81 -1.7,1.74 -1.44,3.13 0.07,0.35 -0.14,0.6 -0.43,0.81 -0.66,0.49 -1.29,1.03 -1.95,1.52 -0.35,0.26 -0.53,0.56 -0.52,1.01 0.02,0.8 -0.01,1.6 0,2.41 0.01,0.4 -0.16,0.54 -0.55,0.46 -0.92,-0.19 -1.84,-0.33 -2.05,-1.52 -0.07,-0.41 -0.31,-0.79 -0.51,-1.16 -0.88,-1.61 -0.51,-3.36 -0.58,-4.91"
           clip-path="url(#SVGID_4_)"
           id="path44"
           inkscape:connector-curvature="0"
           style="fill:#b2b2b2" /><path
           class="st5"
           d="m 355.21,226.96 c -0.01,1.3 -0.95,2.21 -2.27,2.22 -1.03,0.01 -2.26,-0.83 -2.18,-2.39 0.06,-1.17 1.06,-2.08 2.25,-2.08 1.22,0.01 2.21,1.02 2.2,2.25 m -3.64,-0.01 c -0.01,0.78 0.61,1.41 1.41,1.42 0.76,0.01 1.41,-0.6 1.42,-1.36 0.01,-0.8 -0.57,-1.44 -1.3,-1.46 -0.89,-0.02 -1.51,0.54 -1.53,1.4"
           clip-path="url(#SVGID_4_)"
           id="path46"
           inkscape:connector-curvature="0"
           style="fill:#70868f" /><path
           class="st6"
           d="m 351.57,226.95 c 0.02,-0.85 0.63,-1.42 1.53,-1.4 0.74,0.02 1.32,0.66 1.3,1.46 -0.01,0.75 -0.66,1.37 -1.42,1.36 -0.79,-0.01 -1.42,-0.65 -1.41,-1.42 m 1.41,0.84 c 0.5,0 0.87,-0.37 0.88,-0.85 0,-0.44 -0.42,-0.85 -0.88,-0.85 -0.44,0 -0.84,0.41 -0.84,0.9 0,0.4 0.36,0.85 0.84,0.8"
           clip-path="url(#SVGID_4_)"
           id="path48"
           inkscape:connector-curvature="0"
           style="fill:#f8fafa" /><path
           class="st7"
           d="m 352.98,227.79 c -0.48,0.05 -0.84,-0.4 -0.84,-0.8 0,-0.49 0.4,-0.9 0.84,-0.9 0.46,0 0.88,0.41 0.88,0.85 -0.01,0.49 -0.39,0.86 -0.88,0.85"
           clip-path="url(#SVGID_4_)"
           id="path50"
           inkscape:connector-curvature="0"
           style="fill:#c4cecc" /><path
           class="st5"
           d="m 338.19,226.96 c -0.01,1.3 -0.95,2.21 -2.27,2.22 -1.03,0.01 -2.26,-0.83 -2.18,-2.39 0.06,-1.17 1.06,-2.08 2.25,-2.08 1.22,0.01 2.21,1.02 2.2,2.25 m -3.64,-0.01 c -0.01,0.78 0.61,1.41 1.41,1.42 0.76,0.01 1.41,-0.6 1.42,-1.36 0.01,-0.8 -0.57,-1.44 -1.3,-1.46 -0.9,-0.02 -1.51,0.54 -1.53,1.4"
           clip-path="url(#SVGID_4_)"
           id="path52"
           inkscape:connector-curvature="0"
           style="fill:#70868f" /><path
           class="st6"
           d="m 334.55,226.95 c 0.02,-0.85 0.63,-1.42 1.53,-1.4 0.74,0.02 1.32,0.66 1.3,1.46 -0.01,0.75 -0.66,1.37 -1.42,1.36 -0.79,-0.01 -1.42,-0.65 -1.41,-1.42 m 1.4,0.84 c 0.5,0 0.87,-0.37 0.88,-0.85 0,-0.44 -0.42,-0.85 -0.88,-0.85 -0.44,0 -0.84,0.41 -0.84,0.9 0,0.4 0.37,0.85 0.84,0.8"
           clip-path="url(#SVGID_4_)"
           id="path54"
           inkscape:connector-curvature="0"
           style="fill:#f8fafa" /><path
           class="st7"
           d="m 335.95,227.79 c -0.48,0.05 -0.84,-0.4 -0.84,-0.8 0,-0.49 0.4,-0.9 0.84,-0.9 0.46,0 0.88,0.41 0.88,0.85 0,0.49 -0.38,0.86 -0.88,0.85"
           clip-path="url(#SVGID_4_)"
           id="path56"
           inkscape:connector-curvature="0"
           style="fill:#c4cecc" /><path
           class="st8"
           d="m 355.4,225.87 c -0.84,-1.01 -2.56,-0.38 -3.75,-0.55 -1.06,-0.11 -1.37,0.68 -1.92,1.39 -3.4,0.26 -7.02,-0.01 -10.49,0.08 -0.56,0.01 -0.64,-0.1 -0.68,-0.57 0.01,0 0.01,0 0.02,-0.01 l -0.02,-0.02 c 0,0.01 0,0.01 0,0.02 -0.05,-0.6 -0.31,-1.29 -0.75,-1.74 -0.23,-0.24 -0.55,-0.37 -0.88,-0.36 -0.78,0.01 -1.8,-0.22 -2.32,0.17 -0.23,0.28 -0.64,0.49 -0.69,0.92 -0.96,2.07 -0.58,1.19 -2.85,1.35 -0.07,-0.61 -0.15,-0.7 -0.72,-0.73 -0.08,-1.68 0.05,-3.36 0.44,-5 0.04,-0.9 5.35,-0.16 6.41,-0.38 0.5,0 1,-0.02 1.5,-0.01 0.1,1.07 0.01,2.15 0.04,3.22 0.1,-1.07 -0.01,-2.15 0.08,-3.22 2.89,0 5.79,0 8.68,0 3.46,-0.01 6.92,0.03 10.38,-0.02 0.24,0.77 0.24,1.59 0.15,2.38 0,0.04 0.01,0.07 0.03,0.1 0.03,0.05 0.01,0.4 0.17,0.37 0.2,0.01 0.22,0.15 0.22,0.3 0.02,0.78 0.07,1.49 -0.33,2.15 0,0.2 -0.13,0.28 -0.32,0.28 -0.3,0.05 -0.91,-0.17 -0.87,0.32 0.03,0.49 -0.62,0.25 -0.91,0.31 -0.53,0.06 -0.34,-0.52 -0.62,-0.75 m -17.21,-4.08 c 0.1,-0.01 0.32,0.05 0.32,-0.09 -0.08,-0.32 -0.71,-0.11 -0.98,-0.11 -0.27,0.34 0.49,0.2 0.66,0.2 m 17.94,2.07 c 0.52,-0.03 0.5,-0.86 -0.03,-0.83 -0.53,0 -0.49,0.86 0.03,0.83"
           clip-path="url(#SVGID_4_)"
           id="path58"
           inkscape:connector-curvature="0"
           style="fill:#dadada" /><path
           class="st6"
           d="m 338.81,215.29 c 0,-0.07 0.01,-0.14 0.01,-0.22 0.1,-0.16 0.26,-0.17 0.43,-0.17 4.65,0 9.31,0 13.96,0 0.3,0 0.6,0 0.9,0 0.43,0.01 0.65,0.16 0.79,0.56 0.03,0.07 0.01,0.17 0.12,0.19 v 0 c 0.1,0.07 0.21,0.08 0.32,0.1 0.49,0.1 0.91,0.31 1.24,0.7 0.13,0.16 0.07,0.24 -0.1,0.27 -0.06,0.01 -0.12,0 -0.19,0 -5.75,0 -11.49,0 -17.24,0 -0.23,0 -0.46,-0.01 -0.69,0 -0.2,0.01 -0.27,-0.07 -0.26,-0.26 0.01,-0.19 0,-0.39 0,-0.58 0,-0.49 -0.04,-0.45 0.44,-0.45 0.13,0 0.26,0.05 0.27,-0.14"
           clip-path="url(#SVGID_4_)"
           id="path60"
           inkscape:connector-curvature="0"
           style="fill:#f8fafa" /><path
           class="st6"
           d="m 337.86,215.34 c 0.1,0.4 0.05,0.81 0.04,1.21 0,0.13 -0.09,0.18 -0.22,0.18 -1.25,0 -2.49,0 -3.74,0 -0.14,0 -0.19,-0.06 -0.19,-0.19 0.01,-0.4 0.01,-0.79 0.01,-1.19 1.37,0 2.74,-0.01 4.1,-0.01"
           clip-path="url(#SVGID_4_)"
           id="path62"
           inkscape:connector-curvature="0"
           style="fill:#f8fafa" /><path
           class="st7"
           d="m 355.03,215.66 c -0.11,-0.02 -0.09,-0.12 -0.12,-0.19 -0.15,-0.4 -0.36,-0.55 -0.79,-0.56 -0.3,-0.01 -0.6,0 -0.9,0 -4.65,0 -9.31,0 -13.96,0 -0.18,0 -0.33,0.01 -0.43,0.17 -0.06,-0.28 0.13,-0.27 0.32,-0.27 4.26,0 8.53,0 12.79,0 0.73,0 1.45,0 2.18,0 0.59,0 0.85,0.24 0.91,0.85"
           clip-path="url(#SVGID_4_)"
           id="path64"
           inkscape:connector-curvature="0"
           style="fill:#c4cecc" /><path
           class="st6"
           d="m 358.17,226.03 c 0.08,0.01 0.16,0.04 0.23,0.03 0.58,-0.02 0.57,0.36 0.48,0.74 -0.03,0.15 -0.15,0.23 -0.32,0.23 -0.31,-0.01 -0.62,-0.01 -0.92,0 -0.28,0.02 -0.5,-0.08 -0.65,-0.32 0,-0.07 0,-0.14 0,-0.21 -0.01,-0.42 0,-0.42 0.41,-0.43 0.26,-0.01 0.52,0.05 0.77,-0.04"
           clip-path="url(#SVGID_4_)"
           id="path66"
           inkscape:connector-curvature="0"
           style="fill:#f8fafa" /><path
           class="st3"
           d="m 330.34,225.84 c 0.67,-0.06 0.85,0.51 0.6,1.07 -0.33,0.21 -0.86,0.15 -1.25,0 -0.26,-0.54 -0.01,-1.19 0.65,-1.07"
           clip-path="url(#SVGID_4_)"
           id="path68"
           inkscape:connector-curvature="0"
           style="fill:#ededed" /><path
           class="st6"
           d="m 333.08,215.44 c 0.48,-0.01 0.48,-0.01 0.48,0.5 0,0.19 -0.01,0.39 0,0.58 0.01,0.16 -0.07,0.22 -0.22,0.22 -0.26,0 -0.53,0.01 -0.79,0.01 -0.04,-0.01 -0.08,-0.01 -0.12,-0.02 0,-0.1 0,-0.21 0,-0.31 0.09,-0.42 0.24,-0.79 0.65,-0.98"
           clip-path="url(#SVGID_4_)"
           id="path70"
           inkscape:connector-curvature="0"
           style="fill:#f8fafa" /><path
           class="st8"
           d="m 330.56,222.51 c -0.03,0.43 -0.06,1.44 -0.72,1.3 0.13,-0.59 -0.33,-2.13 0.72,-1.3"
           clip-path="url(#SVGID_4_)"
           id="path72"
           inkscape:connector-curvature="0"
           style="fill:#dadada" /><path
           class="st5"
           d="m 332.22,218.21 c -0.19,0.46 -0.33,0.93 -0.57,1.36 -0.14,-0.03 -0.18,-0.13 -0.13,-0.24 0.15,-0.39 0.32,-0.78 0.48,-1.18 0.03,-0.07 0.07,-0.14 0.15,-0.12 0.09,0.02 0.05,0.11 0.07,0.18"
           clip-path="url(#SVGID_4_)"
           id="path74"
           inkscape:connector-curvature="0"
           style="fill:#70868f" /><path
           class="st7"
           d="m 329.87,222.54 c 0.2,0.38 -0.04,0.87 0.01,1.28 -0.31,0.03 -0.26,-1.2 -0.01,-1.28"
           clip-path="url(#SVGID_4_)"
           id="path76"
           inkscape:connector-curvature="0"
           style="fill:#c4cecc" /><path
           class="st7"
           d="m 332.43,216.41 c 0,0.1 0,0.21 0,0.31 -0.14,-0.11 -0.15,-0.21 0,-0.31"
           clip-path="url(#SVGID_4_)"
           id="path78"
           inkscape:connector-curvature="0"
           style="fill:#c4cecc" /><path
           class="st7"
           d="m 329.83,222.4 c -0.01,0.02 -0.02,0.04 -0.03,0.06 0,-0.01 0.01,-0.04 0.03,-0.06"
           clip-path="url(#SVGID_4_)"
           id="path80"
           inkscape:connector-curvature="0"
           style="fill:#c4cecc" /><path
           class="st7"
           d="m 356.94,216.93 c -0.01,0 -0.03,-0.01 -0.04,-0.02 0.01,0.01 0.02,0.02 0.04,0.02"
           clip-path="url(#SVGID_4_)"
           id="path82"
           inkscape:connector-curvature="0"
           style="fill:#c4cecc" /><path
           class="st5"
           d="m 334.02,219.77 c -0.53,-0.03 0.04,0.78 -0.44,0.66 0.17,-0.57 -0.79,-2 0.3,-2.03 0.41,0.34 0.23,0.95 0.14,1.37"
           clip-path="url(#SVGID_4_)"
           id="path84"
           inkscape:connector-curvature="0"
           style="fill:#70868f" /><path
           class="st6"
           d="m 356.13,223.86 c -0.22,0.01 -0.4,-0.17 -0.41,-0.39 -0.01,-0.25 0.15,-0.43 0.39,-0.44 0.23,-0.01 0.42,0.17 0.42,0.41 0,0.21 -0.2,0.42 -0.4,0.42"
           clip-path="url(#SVGID_4_)"
           id="path86"
           inkscape:connector-curvature="0"
           style="fill:#f8fafa" /><path
           class="st7"
           d="m 333.8,220.43 c 0.09,-0.07 0.2,-0.05 0.31,-0.05 1.32,0 2.64,0 3.96,0 0.1,0 0.2,-0.02 0.28,0.05 -0.39,0.01 -0.77,0.02 -1.16,0.02 -1.02,0 -2.05,0 -3.07,0 -0.11,0 -0.21,-0.02 -0.32,-0.02"
           clip-path="url(#SVGID_4_)"
           id="path88"
           inkscape:connector-curvature="0"
           style="fill:#c4cecc" /><path
           class="st7"
           d="m 338.55,226.22 c 0,-0.01 0,-0.01 0,-0.02 l 0.02,0.02 c 0,0 -0.01,0 -0.02,0 z"
           clip-path="url(#SVGID_4_)"
           id="path90"
           inkscape:connector-curvature="0"
           style="fill:#c4cecc" /><path
           class="st9"
           d="m 358.02,220.82 c 0.03,0.11 0.05,0.21 0,0.33 -0.06,-0.13 -0.06,-0.23 0,-0.33"
           clip-path="url(#SVGID_4_)"
           id="path92"
           inkscape:connector-curvature="0"
           style="fill:#eb6763" /><path
           class="st6"
           d="m 357.97,220.21 c -0.1,-0.55 -0.21,-1.1 -0.38,-1.64 -0.18,-0.56 -0.39,-1.11 -0.65,-1.64 -0.01,0 -0.03,-0.01 -0.04,-0.02 -0.07,0 -0.15,0 -0.22,-0.01 -1.04,0.01 -2.07,0.02 -3.11,0.02 -5.02,0 -10.05,0 -15.07,0 -1.81,0 -3.63,0 -5.44,0 -0.15,0 -0.28,0.01 -0.39,0.12 -0.14,0.39 -0.26,0.79 -0.45,1.16 -0.19,0.46 -0.33,0.93 -0.57,1.36 0.03,0.16 -0.04,0.25 -0.16,0.36 -0.17,0.15 -0.42,0.24 -0.48,0.51 0.86,0 1.72,0 2.57,0.01 0,-0.22 0.13,-0.46 -0.08,-0.66 -0.38,0.06 -0.77,0.02 -1.16,0.02 -0.22,0 -0.29,-0.14 -0.21,-0.4 0.11,-0.35 0.24,-0.69 0.4,-1.03 0.12,-0.35 0.24,-0.7 0.37,-1.04 0.05,-0.15 0.19,-0.18 0.33,-0.18 1.63,0 3.26,0 4.89,0 0.18,0 0.28,0.08 0.28,0.27 0,0.68 0,1.36 0,2.04 0,0.15 -0.05,0.26 -0.22,0.29 h -0.02 -0.02 c -0.07,0.05 -0.14,0.05 -0.22,0.04 -0.11,0 -0.22,0 -0.33,0 -0.97,0 -1.94,0 -2.91,0 h -0.12 c -0.18,0.01 -0.36,0.03 -0.54,-0.02 -0.2,0 -0.27,0.12 -0.25,0.3 0.01,0.12 0.01,0.24 0.02,0.36 0,0 0.01,-0.01 0.01,-0.01 0.09,-0.07 0.2,-0.05 0.31,-0.05 1.32,0 2.64,0 3.96,0 0.1,0 0.2,-0.02 0.28,0.05 0.11,0 0.22,0 0.34,0.01 0.04,0 0.07,0 0.11,0 2.89,0 5.79,0 8.68,0 3.04,0 6.09,0 9.13,0 0.42,0 0.83,-0.01 1.25,-0.02 0.03,0 0.06,0 0.1,-0.01 0.03,-0.05 0.02,-0.12 0.01,-0.19 m -11.47,-0.36 c -1.2,0 -2.39,0 -3.59,0 v 0.01 c -1.19,0 -2.37,0 -3.56,0 -0.18,0 -0.28,-0.03 -0.27,-0.25 0.01,-0.73 0.01,-1.47 0,-2.2 0,-0.19 0.07,-0.27 0.27,-0.27 2.39,0 4.78,0 7.17,0 0.2,0 0.27,0.09 0.27,0.27 0,0.73 0,1.47 0,2.2 0,0.23 -0.13,0.24 -0.29,0.24 m 8.51,0 c -0.11,0 -0.23,0 -0.34,0 -2.27,0 -4.54,0 -6.82,0 -0.12,0 -0.31,0.08 -0.31,-0.16 l -0.01,-0.16 c -0.06,-0.1 -0.06,-0.21 0,-0.31 0,-0.05 0,-0.11 0,-0.16 -0.06,-0.58 -0.07,-1.17 0,-1.75 0.02,-0.21 0.19,-0.15 0.31,-0.15 1.58,0 3.15,0 4.73,0 0.43,0 0.87,0.01 1.3,-0.01 0.23,-0.01 0.4,0.07 0.52,0.25 0.23,0.34 0.45,0.69 0.5,1.12 0.21,0.36 0.28,0.77 0.3,1.18 -0.01,0.1 -0.08,0.15 -0.18,0.15"
           clip-path="url(#SVGID_4_)"
           id="path94"
           inkscape:connector-curvature="0"
           style="fill:#f8fafa" /><path
           class="st7"
           d="m 356.42,217.45 h -1.22 c -0.03,0 -0.05,-0.02 -0.05,-0.05 0,-0.03 0.02,-0.05 0.05,-0.05 h 1.22 c 0.03,0 0.05,0.02 0.05,0.05 0,0.02 -0.02,0.05 -0.05,0.05"
           clip-path="url(#SVGID_4_)"
           id="path96"
           inkscape:connector-curvature="0"
           style="fill:#c4cecc" /><path
           class="st7"
           d="m 356.53,217.72 h -1.22 c -0.03,0 -0.05,-0.02 -0.05,-0.05 0,-0.03 0.02,-0.05 0.05,-0.05 h 1.22 c 0.03,0 0.05,0.02 0.05,0.05 0,0.03 -0.02,0.05 -0.05,0.05"
           clip-path="url(#SVGID_4_)"
           id="path98"
           inkscape:connector-curvature="0"
           style="fill:#c4cecc" /><path
           class="st7"
           d="m 356.61,218 h -1.22 c -0.03,0 -0.05,-0.02 -0.05,-0.05 0,-0.03 0.02,-0.05 0.05,-0.05 h 1.22 c 0.03,0 0.05,0.02 0.05,0.05 0,0.03 -0.02,0.05 -0.05,0.05"
           clip-path="url(#SVGID_4_)"
           id="path100"
           inkscape:connector-curvature="0"
           style="fill:#c4cecc" /><path
           class="st7"
           d="m 356.71,218.28 h -1.22 c -0.03,0 -0.05,-0.02 -0.05,-0.05 0,-0.03 0.02,-0.05 0.05,-0.05 h 1.22 c 0.03,0 0.05,0.02 0.05,0.05 0,0.03 -0.02,0.05 -0.05,0.05"
           clip-path="url(#SVGID_4_)"
           id="path102"
           inkscape:connector-curvature="0"
           style="fill:#c4cecc" /><path
           class="st7"
           d="m 356.81,218.56 h -1.22 c -0.03,0 -0.05,-0.02 -0.05,-0.05 0,-0.03 0.02,-0.05 0.05,-0.05 h 1.22 c 0.03,0 0.05,0.02 0.05,0.05 0,0.02 -0.02,0.05 -0.05,0.05"
           clip-path="url(#SVGID_4_)"
           id="path104"
           inkscape:connector-curvature="0"
           style="fill:#c4cecc" /><path
           class="st7"
           d="m 356.93,218.83 h -1.22 c -0.03,0 -0.05,-0.02 -0.05,-0.05 0,-0.03 0.02,-0.05 0.05,-0.05 h 1.22 c 0.03,0 0.05,0.02 0.05,0.05 0,0.03 -0.03,0.05 -0.05,0.05"
           clip-path="url(#SVGID_4_)"
           id="path106"
           inkscape:connector-curvature="0"
           style="fill:#c4cecc" /><path
           class="st7"
           d="m 357.02,219.11 h -1.22 c -0.03,0 -0.05,-0.02 -0.05,-0.05 0,-0.03 0.02,-0.05 0.05,-0.05 h 1.22 c 0.03,0 0.05,0.02 0.05,0.05 0,0.03 -0.02,0.05 -0.05,0.05"
           clip-path="url(#SVGID_4_)"
           id="path108"
           inkscape:connector-curvature="0"
           style="fill:#c4cecc" /><path
           class="st7"
           d="m 357.13,219.39 h -1.22 c -0.03,0 -0.05,-0.02 -0.05,-0.05 0,-0.03 0.02,-0.05 0.05,-0.05 h 1.22 c 0.03,0 0.05,0.02 0.05,0.05 -0.01,0.03 -0.03,0.05 -0.05,0.05"
           clip-path="url(#SVGID_4_)"
           id="path110"
           inkscape:connector-curvature="0"
           style="fill:#c4cecc" /><path
           class="st7"
           d="m 357.26,219.67 h -1.22 c -0.03,0 -0.05,-0.02 -0.05,-0.05 0,-0.03 0.02,-0.05 0.05,-0.05 h 1.22 c 0.03,0 0.05,0.02 0.05,0.05 0,0.02 -0.02,0.05 -0.05,0.05"
           clip-path="url(#SVGID_4_)"
           id="path112"
           inkscape:connector-curvature="0"
           style="fill:#c4cecc" /><path
           class="st7"
           d="m 357.21,219.61 -0.77,-2.19 c -0.01,-0.03 0,-0.05 0.03,-0.06 0.03,-0.01 0.05,0 0.06,0.03 l 0.77,2.19 c 0.01,0.03 0,0.05 -0.03,0.06 -0.02,0.01 -0.05,0 -0.06,-0.03"
           clip-path="url(#SVGID_4_)"
           id="path114"
           inkscape:connector-curvature="0"
           style="fill:#c4cecc" /><path
           class="st7"
           d="m 338.29,215.16 h -5.11 c -0.13,0 -0.23,-0.1 -0.23,-0.23 0,-0.13 0.1,-0.23 0.23,-0.23 h 5.11 c 0.13,0 0.23,0.1 0.23,0.23 0,0.13 -0.1,0.23 -0.23,0.23"
           clip-path="url(#SVGID_4_)"
           id="path116"
           inkscape:connector-curvature="0"
           style="fill:#c4cecc" /><path
           class="st10"
           d="m 338.29,215.16 h -5.11 c -0.13,0 -0.23,-0.1 -0.23,-0.23 0,-0.13 0.1,-0.23 0.23,-0.23 h 5.11 c 0.13,0 0.23,0.1 0.23,0.23 0,0.13 -0.1,0.23 -0.23,0.23 z"
           clip-path="url(#SVGID_4_)"
           id="path118"
           inkscape:connector-curvature="0"
           style="fill:none;stroke:#9d9d9c;stroke-width:0.3017;stroke-miterlimit:10" /><path
           class="st5"
           d="m 338.4,221.86 h -0.79 c -0.1,0 -0.18,-0.08 -0.18,-0.18 0,-0.1 0.08,-0.18 0.18,-0.18 h 0.79 c 0.1,0 0.18,0.08 0.18,0.18 0,0.1 -0.08,0.18 -0.18,0.18"
           clip-path="url(#SVGID_4_)"
           id="path120"
           inkscape:connector-curvature="0"
           style="fill:#70868f" /><path
           class="st5"
           d="m 338.32,220.5 h -4.41 c -0.04,0 -0.07,-0.03 -0.07,-0.07 0,-0.04 0.03,-0.07 0.07,-0.07 h 4.41 c 0.04,0 0.07,0.03 0.07,0.07 0,0.04 -0.04,0.07 -0.07,0.07"
           clip-path="url(#SVGID_4_)"
           id="path122"
           inkscape:connector-curvature="0"
           style="fill:#70868f" /></g></g></g><g
     class="st11"
     id="g234"
     style="display:none"
     transform="translate(-54.53,-212.77)"><g
       class="st12"
       id="g232"
       style="display:inline"><defs
         id="defs131"><rect
           id="SVGID_5_"
           x="59.119999"
           y="179.08"
           width="89.790001"
           height="126.99" /></defs><clipPath
         id="SVGID_6_"><use
           xlink:href="#SVGID_5_"
           style="overflow:visible"
           id="use133"
           x="0"
           y="0"
           width="100%"
           height="100%" /></clipPath><g
         class="st13"
         clip-path="url(#SVGID_6_)"
         id="g230"><defs
           id="defs137"><rect
             id="SVGID_7_"
             x="59.119999"
             y="179.08"
             width="89.790001"
             height="126.99" /></defs><clipPath
           id="SVGID_8_"><use
             xlink:href="#SVGID_7_"
             style="overflow:visible"
             id="use139"
             x="0"
             y="0"
             width="100%"
             height="100%" /></clipPath><path
           class="st14"
           d="m 96.34,229.05 c 2.41,-1.02 4.94,-1.44 7.53,-1.45 3.35,-0.02 6.56,0.63 9.55,2.2 -1.03,0.65 -2.07,1.59 -3.29,1.46 -1.99,-0.21 -3,0.59 -3.58,2.37 -0.17,0.53 -0.08,0.68 0.37,0.88 1.18,0.53 2.34,0.4 3.51,0.01 0.45,-0.15 0.92,-0.3 1.4,-0.11 1.29,0.5 2.68,0.64 3.99,1.04 1.27,0.39 2.17,0.03 3.07,-0.74 0.19,-0.16 0.38,-0.33 0.57,-0.49 1.35,1.27 2.43,2.74 3.24,4.41 -1.3,0.45 -2.57,1.01 -3.9,1.34 -1.68,0.41 -3.31,-0.27 -4.97,-0.47 -0.15,-0.02 -0.29,-0.11 -0.33,-0.27 -0.14,-0.65 -0.74,-1 -1.03,-1.54 -0.23,-0.42 -0.61,-0.55 -1.07,-0.54 -1,0.01 -2.01,0 -3.01,0.01 -0.61,0.01 -2.75,1.81 -2.87,2.41 -0.01,0.07 -0.02,0.15 -0.01,0.22 0.23,1.48 0.45,2.97 0.68,4.45 0.04,0.26 0.14,0.46 0.41,0.57 1.41,0.59 2.81,1.19 4.21,1.8 0.41,0.18 0.79,0.2 1.22,0.07 0.57,-0.17 1.17,-0.28 1.76,-0.4 1.14,-0.24 1.74,0.73 2.57,1.17 0.42,0.22 0.19,0.84 0.19,1.27 -0.01,0.98 0.03,1.92 0.54,2.83 0.7,1.24 1.28,2.55 1.93,3.82 0.36,0.71 0.62,1.43 0.52,2.23 -0.14,1.17 0.09,2.17 1.11,2.9 0.32,0.23 0.55,0.57 0.83,0.86 -1.73,2.59 -3.98,4.64 -6.67,6.17 -5.55,3.16 -11.39,3.72 -17.49,1.85 -8.05,-2.47 -14.28,-10.54 -14.69,-18.98 -0.15,-3.07 0.26,-6.05 1.34,-8.92 0.09,-0.23 0.12,-0.49 0.34,-0.65 0.37,1.06 0.75,2.12 1.11,3.18 0.1,0.29 0.18,0.59 0.45,0.76 1.2,0.78 2.4,1.54 3.59,2.31 0.31,0.2 0.51,0.2 0.52,-0.24 0.03,-1.23 0.14,-2.43 -1.09,-3.3 -0.79,-0.57 -0.42,-1.55 -0.34,-2.33 0.07,-0.63 0.78,-0.47 1.25,-0.54 1.36,-0.21 2.82,-0.14 4.05,-0.71 2.19,-1.02 4.18,-2.39 5.14,-4.78 0.29,-0.72 0.76,-1.2 1.51,-1.29 1.17,-0.15 1.54,-0.96 1.78,-1.93 0.11,-0.43 0.03,-0.66 -0.45,-0.73 -1.11,-0.17 -2.23,-0.33 -3.33,-0.58 -0.91,-0.21 -1.69,-0.71 -2.16,-1.6 m -2.67,29.88 c 0.07,1.54 -0.29,3.3 0.58,4.92 0.2,0.37 0.44,0.76 0.51,1.16 0.21,1.19 1.13,1.33 2.05,1.52 0.39,0.08 0.56,-0.06 0.55,-0.46 -0.01,-0.8 0.02,-1.6 0,-2.41 -0.01,-0.45 0.16,-0.75 0.52,-1.01 0.66,-0.49 1.29,-1.03 1.95,-1.52 0.29,-0.21 0.49,-0.46 0.43,-0.81 -0.26,-1.39 0.44,-2.32 1.44,-3.13 0.35,-0.28 0.65,-0.62 0.95,-0.96 0.23,-0.26 0.56,-0.44 0.63,-0.82 0.18,-0.91 0.37,-1.81 0.56,-2.72 0.1,-0.5 -0.14,-0.68 -0.62,-0.67 -0.55,0.02 -1.1,-0.02 -1.65,0.01 -0.37,0.02 -0.58,-0.12 -0.77,-0.45 -0.52,-0.91 -1.12,-1.78 -1.61,-2.71 -0.25,-0.46 -0.57,-0.57 -1.03,-0.57 -1.23,0.01 -2.46,-0.04 -3.68,0.01 -0.66,0.02 -1.02,-0.22 -1.25,-0.82 -0.18,-0.47 -0.45,-0.9 -0.66,-1.35 -0.25,-0.54 -0.51,-0.67 -0.98,-0.16 -0.8,0.86 -1.64,1.69 -2.49,2.5 -0.39,0.38 -0.53,0.81 -0.59,1.33 -0.17,1.46 0.65,2.58 1.22,3.8 0.18,0.4 0.49,0.61 0.91,0.7 0.76,0.15 1.51,0.34 2.28,0.48 0.53,0.09 0.78,0.33 0.76,0.9 -0.03,1.02 -0.01,2.05 -0.01,3.24"
           clip-path="url(#SVGID_8_)"
           id="path142"
           inkscape:connector-curvature="0"
           style="fill:#ededed" /><path
           class="st15"
           d="m 121.48,261.37 c -0.27,-0.29 -0.51,-0.63 -0.83,-0.86 -1.02,-0.73 -1.25,-1.73 -1.11,-2.9 0.09,-0.8 -0.16,-1.53 -0.52,-2.23 -0.65,-1.27 -1.23,-2.58 -1.93,-3.82 -0.51,-0.91 -0.55,-1.85 -0.54,-2.83 0,-0.43 0.23,-1.05 -0.19,-1.27 -0.83,-0.44 -1.44,-1.41 -2.57,-1.17 -0.59,0.12 -1.18,0.23 -1.76,0.4 -0.43,0.13 -0.81,0.11 -1.22,-0.07 -1.4,-0.61 -2.8,-1.21 -4.21,-1.8 -0.27,-0.11 -0.37,-0.31 -0.41,-0.58 -0.23,-1.48 -0.46,-2.97 -0.68,-4.45 -0.01,-0.07 0,-0.15 0.01,-0.22 0.12,-0.6 2.26,-2.4 2.87,-2.41 1,-0.01 2.01,0 3.01,-0.01 0.46,-0.01 0.84,0.12 1.07,0.54 0.3,0.55 0.89,0.89 1.03,1.54 0.04,0.16 0.17,0.26 0.33,0.27 1.65,0.2 3.29,0.89 4.97,0.47 1.33,-0.33 2.6,-0.88 3.9,-1.34 1.37,2.31 2.16,4.82 2.53,7.47 0.62,4.48 -0.17,8.72 -2.15,12.75 -0.45,0.88 -1.07,1.68 -1.6,2.52"
           clip-path="url(#SVGID_8_)"
           id="path144"
           inkscape:connector-curvature="0"
           style="fill:#b2b2b2" /><path
           class="st15"
           d="m 96.34,229.05 c 0.47,0.88 1.25,1.39 2.19,1.6 1.1,0.25 2.21,0.41 3.33,0.58 0.47,0.07 0.55,0.3 0.45,0.73 -0.24,0.98 -0.61,1.79 -1.78,1.93 -0.75,0.09 -1.22,0.58 -1.51,1.29 -0.96,2.39 -2.94,3.76 -5.14,4.78 -1.23,0.57 -2.69,0.5 -4.05,0.71 -0.47,0.07 -1.18,-0.08 -1.25,0.54 -0.08,0.78 -0.45,1.76 0.34,2.33 1.22,0.87 1.12,2.07 1.09,3.3 -0.01,0.44 -0.21,0.44 -0.52,0.24 -1.2,-0.77 -2.4,-1.54 -3.59,-2.31 -0.27,-0.17 -0.35,-0.47 -0.45,-0.76 -0.37,-1.06 -0.74,-2.12 -1.11,-3.18 2.31,-5.63 6.38,-9.5 12,-11.78"
           clip-path="url(#SVGID_8_)"
           id="path146"
           inkscape:connector-curvature="0"
           style="fill:#b2b2b2" /><path
           class="st15"
           d="m 119.45,234.22 c -0.19,0.16 -0.38,0.33 -0.57,0.49 -0.9,0.77 -1.8,1.12 -3.07,0.74 -1.31,-0.4 -2.7,-0.54 -3.99,-1.04 -0.48,-0.18 -0.95,-0.04 -1.4,0.11 -1.17,0.39 -2.33,0.52 -3.51,-0.01 -0.45,-0.2 -0.54,-0.35 -0.37,-0.88 0.58,-1.78 1.59,-2.58 3.58,-2.37 1.22,0.13 2.26,-0.81 3.29,-1.46 2.29,1.1 4.32,2.55 6.04,4.42"
           clip-path="url(#SVGID_8_)"
           id="path148"
           inkscape:connector-curvature="0"
           style="fill:#b2b2b2" /><path
           class="st15"
           d="m 93.67,258.93 c 0,-1.19 -0.02,-2.22 0.01,-3.25 0.02,-0.57 -0.23,-0.81 -0.76,-0.9 -0.76,-0.13 -1.52,-0.32 -2.28,-0.48 -0.42,-0.09 -0.73,-0.3 -0.91,-0.7 -0.56,-1.21 -1.38,-2.34 -1.22,-3.8 0.06,-0.52 0.2,-0.95 0.59,-1.33 0.85,-0.81 1.69,-1.64 2.49,-2.5 0.47,-0.51 0.72,-0.38 0.98,0.16 0.21,0.45 0.48,0.88 0.66,1.35 0.23,0.59 0.59,0.84 1.25,0.82 1.23,-0.05 2.46,0 3.68,-0.01 0.46,0 0.78,0.11 1.03,0.57 0.49,0.93 1.1,1.79 1.61,2.71 0.19,0.33 0.4,0.47 0.77,0.45 0.55,-0.03 1.1,0.01 1.65,-0.01 0.48,-0.01 0.72,0.17 0.62,0.67 -0.18,0.91 -0.37,1.81 -0.56,2.72 -0.08,0.38 -0.4,0.56 -0.63,0.82 -0.3,0.34 -0.6,0.68 -0.95,0.96 -1,0.81 -1.7,1.74 -1.44,3.13 0.07,0.35 -0.14,0.6 -0.43,0.81 -0.66,0.49 -1.29,1.03 -1.95,1.52 -0.35,0.26 -0.53,0.56 -0.52,1.01 0.02,0.8 -0.01,1.6 0,2.41 0.01,0.4 -0.16,0.54 -0.55,0.46 -0.92,-0.19 -1.84,-0.33 -2.05,-1.52 -0.07,-0.41 -0.31,-0.79 -0.51,-1.16 -0.87,-1.61 -0.51,-3.36 -0.58,-4.91"
           clip-path="url(#SVGID_8_)"
           id="path150"
           inkscape:connector-curvature="0"
           style="fill:#b2b2b2" /><path
           class="st16"
           d="m 114.85,226.96 c -0.01,1.3 -0.95,2.21 -2.27,2.22 -1.03,0.01 -2.26,-0.83 -2.18,-2.39 0.06,-1.17 1.06,-2.08 2.25,-2.08 1.22,0.01 2.21,1.02 2.2,2.25 m -3.64,-0.01 c -0.01,0.78 0.61,1.41 1.41,1.42 0.76,0.01 1.41,-0.6 1.42,-1.36 0.01,-0.8 -0.57,-1.44 -1.3,-1.46 -0.9,-0.02 -1.51,0.54 -1.53,1.4"
           clip-path="url(#SVGID_8_)"
           id="path152"
           inkscape:connector-curvature="0"
           style="fill:#70868f" /><path
           class="st17"
           d="m 111.21,226.95 c 0.02,-0.85 0.63,-1.42 1.53,-1.4 0.74,0.02 1.32,0.66 1.3,1.46 -0.01,0.75 -0.66,1.37 -1.42,1.36 -0.8,-0.01 -1.42,-0.65 -1.41,-1.42 m 1.4,0.84 c 0.5,0 0.87,-0.37 0.88,-0.85 0,-0.44 -0.42,-0.85 -0.88,-0.85 -0.44,0 -0.84,0.41 -0.84,0.9 0,0.4 0.36,0.85 0.84,0.8"
           clip-path="url(#SVGID_8_)"
           id="path154"
           inkscape:connector-curvature="0"
           style="fill:#f8fafa" /><path
           class="st18"
           d="m 112.61,227.79 c -0.48,0.05 -0.84,-0.4 -0.84,-0.8 0,-0.49 0.4,-0.9 0.84,-0.9 0.46,0 0.88,0.41 0.88,0.85 0,0.49 -0.38,0.86 -0.88,0.85"
           clip-path="url(#SVGID_8_)"
           id="path156"
           inkscape:connector-curvature="0"
           style="fill:#c4cecc" /><path
           class="st16"
           d="m 97.82,226.96 c -0.01,1.3 -0.95,2.21 -2.27,2.22 -1.03,0.01 -2.26,-0.83 -2.18,-2.39 0.06,-1.17 1.06,-2.08 2.25,-2.08 1.23,0.01 2.21,1.02 2.2,2.25 m -3.63,-0.01 c -0.01,0.78 0.61,1.41 1.41,1.42 0.76,0.01 1.41,-0.6 1.42,-1.36 0.01,-0.8 -0.57,-1.44 -1.3,-1.46 -0.9,-0.02 -1.52,0.54 -1.53,1.4"
           clip-path="url(#SVGID_8_)"
           id="path158"
           inkscape:connector-curvature="0"
           style="fill:#70868f" /><path
           class="st17"
           d="m 94.19,226.95 c 0.02,-0.85 0.63,-1.42 1.53,-1.4 0.74,0.02 1.32,0.66 1.3,1.46 -0.01,0.75 -0.66,1.37 -1.42,1.36 -0.8,-0.01 -1.43,-0.65 -1.41,-1.42 m 1.4,0.84 c 0.5,0 0.87,-0.37 0.88,-0.85 0,-0.44 -0.42,-0.85 -0.88,-0.85 -0.44,0 -0.84,0.41 -0.84,0.9 0,0.4 0.36,0.85 0.84,0.8"
           clip-path="url(#SVGID_8_)"
           id="path160"
           inkscape:connector-curvature="0"
           style="fill:#f8fafa" /><path
           class="st18"
           d="m 95.59,227.79 c -0.48,0.05 -0.84,-0.4 -0.84,-0.8 0,-0.49 0.4,-0.9 0.84,-0.9 0.46,0 0.88,0.41 0.88,0.85 -0.01,0.49 -0.39,0.86 -0.88,0.85"
           clip-path="url(#SVGID_8_)"
           id="path162"
           inkscape:connector-curvature="0"
           style="fill:#c4cecc" /><path
           class="st19"
           d="m 115.04,225.87 c -0.84,-1.01 -2.56,-0.38 -3.75,-0.55 -1.06,-0.11 -1.37,0.68 -1.92,1.39 -3.4,0.26 -7.02,-0.01 -10.49,0.08 -0.56,0.01 -0.64,-0.1 -0.68,-0.57 0.01,0 0.01,0 0.02,-0.01 l -0.02,-0.02 c 0,0.01 0,0.01 0,0.02 -0.05,-0.6 -0.31,-1.29 -0.75,-1.74 -0.23,-0.24 -0.55,-0.37 -0.87,-0.36 -0.78,0.01 -1.8,-0.22 -2.32,0.17 -0.23,0.28 -0.64,0.49 -0.69,0.92 -0.96,2.07 -0.58,1.19 -2.85,1.35 -0.07,-0.61 -0.15,-0.7 -0.72,-0.73 -0.08,-1.68 0.05,-3.36 0.44,-5 0.04,-0.9 5.35,-0.16 6.41,-0.38 0.5,0 1,-0.02 1.5,-0.01 0.1,1.07 0.01,2.15 0.04,3.22 0.1,-1.07 -0.01,-2.15 0.08,-3.22 2.89,0 5.79,0 8.68,0 3.46,-0.01 6.92,0.03 10.38,-0.02 0.24,0.77 0.24,1.59 0.15,2.38 0,0.04 0.01,0.07 0.03,0.1 0.03,0.05 0.01,0.4 0.17,0.37 0.2,0.01 0.22,0.15 0.22,0.3 0.02,0.78 0.07,1.49 -0.33,2.15 0,0.2 -0.13,0.28 -0.32,0.28 -0.3,0.05 -0.91,-0.17 -0.87,0.32 0.03,0.49 -0.62,0.25 -0.91,0.31 -0.55,0.06 -0.36,-0.52 -0.63,-0.75 m -17.21,-4.08 c 0.1,-0.01 0.32,0.05 0.32,-0.09 -0.08,-0.32 -0.71,-0.11 -0.98,-0.11 -0.28,0.34 0.48,0.2 0.66,0.2 m 17.93,2.07 c 0.52,-0.03 0.5,-0.86 -0.03,-0.83 -0.52,0 -0.48,0.86 0.03,0.83"
           clip-path="url(#SVGID_8_)"
           id="path164"
           inkscape:connector-curvature="0"
           style="fill:#dadada" /><path
           class="st17"
           d="m 98.45,215.29 c 0,-0.07 0.01,-0.14 0.01,-0.22 0.1,-0.16 0.26,-0.17 0.43,-0.17 4.65,0 9.31,0 13.96,0 0.3,0 0.6,0 0.9,0 0.43,0.01 0.65,0.16 0.79,0.56 0.03,0.07 0.01,0.17 0.12,0.19 v 0 c 0.1,0.07 0.21,0.08 0.32,0.1 0.49,0.1 0.91,0.31 1.24,0.7 0.13,0.16 0.07,0.24 -0.1,0.27 -0.06,0.01 -0.12,0 -0.19,0 -5.75,0 -11.49,0 -17.24,0 -0.23,0 -0.46,-0.01 -0.69,0 -0.2,0.01 -0.27,-0.07 -0.26,-0.26 0.01,-0.19 0,-0.39 0,-0.58 0,-0.49 -0.04,-0.45 0.44,-0.45 0.12,0 0.26,0.05 0.27,-0.14"
           clip-path="url(#SVGID_8_)"
           id="path166"
           inkscape:connector-curvature="0"
           style="fill:#f8fafa" /><path
           class="st17"
           d="m 97.5,215.34 c 0.1,0.4 0.05,0.81 0.04,1.21 0,0.13 -0.09,0.18 -0.22,0.18 -1.25,0 -2.49,0 -3.74,0 -0.14,0 -0.19,-0.06 -0.19,-0.19 0.01,-0.4 0.01,-0.79 0.01,-1.19 1.37,0 2.73,-0.01 4.1,-0.01"
           clip-path="url(#SVGID_8_)"
           id="path168"
           inkscape:connector-curvature="0"
           style="fill:#f8fafa" /><path
           class="st18"
           d="m 114.67,215.66 c -0.11,-0.02 -0.09,-0.12 -0.12,-0.19 -0.15,-0.4 -0.36,-0.55 -0.79,-0.56 -0.3,-0.01 -0.6,0 -0.9,0 -4.65,0 -9.31,0 -13.96,0 -0.18,0 -0.33,0.01 -0.43,0.17 -0.06,-0.28 0.13,-0.27 0.32,-0.27 4.26,0 8.53,0 12.79,0 0.73,0 1.45,0 2.18,0 0.59,0 0.85,0.24 0.91,0.85"
           clip-path="url(#SVGID_8_)"
           id="path170"
           inkscape:connector-curvature="0"
           style="fill:#c4cecc" /><path
           class="st17"
           d="m 117.8,226.03 c 0.08,0.01 0.16,0.04 0.23,0.03 0.58,-0.02 0.57,0.36 0.48,0.74 -0.03,0.15 -0.15,0.23 -0.32,0.23 -0.31,-0.01 -0.62,-0.01 -0.92,0 -0.28,0.02 -0.5,-0.08 -0.65,-0.32 0,-0.07 0,-0.14 0,-0.21 -0.01,-0.42 0,-0.42 0.41,-0.43 0.27,-0.01 0.53,0.05 0.77,-0.04"
           clip-path="url(#SVGID_8_)"
           id="path172"
           inkscape:connector-curvature="0"
           style="fill:#f8fafa" /><path
           class="st14"
           d="m 89.97,225.84 c 0.67,-0.06 0.85,0.51 0.6,1.07 -0.33,0.21 -0.86,0.15 -1.25,0 -0.26,-0.54 0,-1.19 0.65,-1.07"
           clip-path="url(#SVGID_8_)"
           id="path174"
           inkscape:connector-curvature="0"
           style="fill:#ededed" /><path
           class="st17"
           d="m 92.71,215.44 c 0.48,-0.01 0.48,-0.01 0.48,0.5 0,0.19 -0.01,0.39 0,0.58 0.01,0.16 -0.07,0.22 -0.22,0.22 -0.26,0 -0.53,0.01 -0.79,0.01 -0.04,-0.01 -0.08,-0.01 -0.12,-0.02 0,-0.1 0,-0.21 0,-0.31 0.1,-0.42 0.24,-0.79 0.65,-0.98"
           clip-path="url(#SVGID_8_)"
           id="path176"
           inkscape:connector-curvature="0"
           style="fill:#f8fafa" /><path
           class="st19"
           d="m 90.2,222.51 c -0.03,0.43 -0.06,1.44 -0.72,1.3 0.13,-0.59 -0.34,-2.13 0.72,-1.3"
           clip-path="url(#SVGID_8_)"
           id="path178"
           inkscape:connector-curvature="0"
           style="fill:#dadada" /><path
           class="st16"
           d="m 91.85,218.21 c -0.19,0.46 -0.33,0.93 -0.57,1.36 -0.14,-0.03 -0.18,-0.13 -0.13,-0.24 0.15,-0.39 0.32,-0.78 0.48,-1.18 0.03,-0.07 0.07,-0.14 0.15,-0.12 0.1,0.02 0.06,0.11 0.07,0.18"
           clip-path="url(#SVGID_8_)"
           id="path180"
           inkscape:connector-curvature="0"
           style="fill:#70868f" /><path
           class="st18"
           d="m 89.51,222.54 c 0.2,0.38 -0.04,0.87 0.01,1.28 -0.31,0.03 -0.27,-1.2 -0.01,-1.28"
           clip-path="url(#SVGID_8_)"
           id="path182"
           inkscape:connector-curvature="0"
           style="fill:#c4cecc" /><path
           class="st18"
           d="m 92.07,216.41 c 0,0.1 0,0.21 0,0.31 -0.15,-0.11 -0.16,-0.21 0,-0.31"
           clip-path="url(#SVGID_8_)"
           id="path184"
           inkscape:connector-curvature="0"
           style="fill:#c4cecc" /><path
           class="st18"
           d="m 89.46,222.4 c -0.01,0.02 -0.02,0.04 -0.03,0.06 0.01,-0.01 0.02,-0.04 0.03,-0.06"
           clip-path="url(#SVGID_8_)"
           id="path186"
           inkscape:connector-curvature="0"
           style="fill:#c4cecc" /><path
           class="st18"
           d="m 116.57,216.93 c -0.01,0 -0.03,-0.01 -0.04,-0.02 0.02,0.01 0.03,0.02 0.04,0.02"
           clip-path="url(#SVGID_8_)"
           id="path188"
           inkscape:connector-curvature="0"
           style="fill:#c4cecc" /><path
           class="st16"
           d="m 93.66,219.77 c -0.53,-0.03 0.04,0.78 -0.44,0.66 0.17,-0.57 -0.79,-2 0.3,-2.03 0.4,0.34 0.22,0.95 0.14,1.37"
           clip-path="url(#SVGID_8_)"
           id="path190"
           inkscape:connector-curvature="0"
           style="fill:#70868f" /><path
           class="st17"
           d="m 115.76,223.86 c -0.22,0.01 -0.4,-0.17 -0.41,-0.39 -0.01,-0.25 0.15,-0.43 0.39,-0.44 0.23,-0.01 0.42,0.17 0.42,0.41 0,0.21 -0.19,0.42 -0.4,0.42"
           clip-path="url(#SVGID_8_)"
           id="path192"
           inkscape:connector-curvature="0"
           style="fill:#f8fafa" /><path
           class="st18"
           d="m 93.44,220.43 c 0.09,-0.07 0.2,-0.05 0.31,-0.05 1.32,0 2.64,0 3.96,0 0.1,0 0.2,-0.02 0.28,0.05 -0.39,0.01 -0.77,0.02 -1.16,0.02 -1.02,0 -2.05,0 -3.07,0 -0.11,0 -0.22,-0.02 -0.32,-0.02"
           clip-path="url(#SVGID_8_)"
           id="path194"
           inkscape:connector-curvature="0"
           style="fill:#c4cecc" /><path
           class="st18"
           d="m 98.18,226.22 c 0,-0.01 0,-0.01 0,-0.02 l 0.02,0.02 c 0,0 -0.01,0 -0.02,0 z"
           clip-path="url(#SVGID_8_)"
           id="path196"
           inkscape:connector-curvature="0"
           style="fill:#c4cecc" /><path
           class="st20"
           d="m 117.66,220.82 c 0.03,0.11 0.05,0.21 0,0.33 -0.07,-0.13 -0.06,-0.23 0,-0.33"
           clip-path="url(#SVGID_8_)"
           id="path198"
           inkscape:connector-curvature="0"
           style="fill:#eb6763" /><path
           class="st17"
           d="m 117.6,220.21 c -0.1,-0.55 -0.21,-1.1 -0.38,-1.64 -0.18,-0.56 -0.39,-1.11 -0.65,-1.64 -0.01,0 -0.03,-0.01 -0.04,-0.02 -0.07,0 -0.15,0 -0.22,-0.01 -1.04,0.01 -2.07,0.02 -3.11,0.02 -5.02,0 -10.05,0 -15.07,0 -1.81,0 -3.63,0 -5.44,0 -0.15,0 -0.28,0.01 -0.39,0.12 -0.14,0.39 -0.26,0.79 -0.45,1.16 -0.19,0.46 -0.33,0.93 -0.57,1.36 0.03,0.16 -0.04,0.25 -0.16,0.36 -0.17,0.15 -0.42,0.24 -0.48,0.51 0.86,0 1.72,0 2.57,0.01 0,-0.22 0.13,-0.46 -0.08,-0.66 -0.38,0.06 -0.77,0.02 -1.16,0.02 -0.22,0 -0.29,-0.14 -0.21,-0.4 0.11,-0.35 0.24,-0.69 0.4,-1.03 0.12,-0.35 0.24,-0.7 0.37,-1.04 0.05,-0.15 0.19,-0.18 0.33,-0.18 1.63,0 3.26,0 4.89,0 0.18,0 0.28,0.08 0.28,0.27 0,0.68 0,1.36 0,2.04 0,0.15 -0.05,0.26 -0.22,0.29 h -0.02 -0.02 c -0.07,0.05 -0.14,0.05 -0.22,0.04 -0.11,0 -0.22,0 -0.33,0 -0.97,0 -1.94,0 -2.91,0 h -0.12 c -0.18,0.01 -0.36,0.03 -0.54,-0.02 -0.2,0 -0.27,0.12 -0.25,0.3 0.01,0.12 0.01,0.24 0.02,0.36 0,0 0.01,-0.01 0.01,-0.01 0.09,-0.07 0.2,-0.05 0.31,-0.05 1.32,0 2.64,0 3.96,0 0.1,0 0.2,-0.02 0.28,0.05 0.11,0 0.22,0 0.33,0.01 0.04,0 0.07,0 0.11,0 2.89,0 5.79,0 8.68,0 3.04,0 6.09,0 9.13,0 0.42,0 0.83,-0.01 1.25,-0.02 0.03,0 0.06,0 0.1,-0.01 0.05,-0.05 0.04,-0.12 0.02,-0.19 m -11.47,-0.36 c -1.2,0 -2.39,0 -3.59,0 v 0.01 c -1.19,0 -2.37,0 -3.56,0 -0.18,0 -0.28,-0.03 -0.27,-0.25 0.01,-0.73 0.01,-1.47 0,-2.2 0,-0.19 0.07,-0.27 0.27,-0.27 2.39,0 4.78,0 7.17,0 0.2,0 0.27,0.09 0.27,0.27 0,0.73 0,1.47 0,2.2 0,0.23 -0.12,0.24 -0.29,0.24 m 8.51,0 c -0.11,0 -0.23,0 -0.34,0 -2.27,0 -4.54,0 -6.82,0 -0.12,0 -0.31,0.08 -0.31,-0.16 l -0.01,-0.16 c -0.06,-0.1 -0.06,-0.21 0,-0.31 0,-0.05 0,-0.11 0,-0.16 -0.06,-0.58 -0.07,-1.17 0,-1.75 0.02,-0.21 0.19,-0.15 0.31,-0.15 1.58,0 3.15,0 4.73,0 0.43,0 0.87,0.01 1.3,-0.01 0.23,-0.01 0.4,0.07 0.52,0.25 0.23,0.34 0.45,0.69 0.5,1.12 0.21,0.36 0.28,0.77 0.3,1.18 0,0.1 -0.07,0.15 -0.18,0.15"
           clip-path="url(#SVGID_8_)"
           id="path200"
           inkscape:connector-curvature="0"
           style="fill:#f8fafa" /><path
           class="st18"
           d="m 116.06,217.45 h -1.22 c -0.03,0 -0.05,-0.02 -0.05,-0.05 0,-0.03 0.02,-0.05 0.05,-0.05 h 1.22 c 0.03,0 0.05,0.02 0.05,0.05 0,0.02 -0.02,0.05 -0.05,0.05"
           clip-path="url(#SVGID_8_)"
           id="path202"
           inkscape:connector-curvature="0"
           style="fill:#c4cecc" /><path
           class="st18"
           d="m 116.17,217.72 h -1.22 c -0.03,0 -0.05,-0.02 -0.05,-0.05 0,-0.03 0.02,-0.05 0.05,-0.05 h 1.22 c 0.03,0 0.05,0.02 0.05,0.05 -0.01,0.03 -0.03,0.05 -0.05,0.05"
           clip-path="url(#SVGID_8_)"
           id="path204"
           inkscape:connector-curvature="0"
           style="fill:#c4cecc" /><path
           class="st18"
           d="m 116.25,218 h -1.22 c -0.03,0 -0.05,-0.02 -0.05,-0.05 0,-0.03 0.02,-0.05 0.05,-0.05 h 1.22 c 0.03,0 0.05,0.02 0.05,0.05 0,0.03 -0.03,0.05 -0.05,0.05"
           clip-path="url(#SVGID_8_)"
           id="path206"
           inkscape:connector-curvature="0"
           style="fill:#c4cecc" /><path
           class="st18"
           d="m 116.35,218.28 h -1.22 c -0.03,0 -0.05,-0.02 -0.05,-0.05 0,-0.03 0.02,-0.05 0.05,-0.05 h 1.22 c 0.03,0 0.05,0.02 0.05,0.05 0,0.03 -0.02,0.05 -0.05,0.05"
           clip-path="url(#SVGID_8_)"
           id="path208"
           inkscape:connector-curvature="0"
           style="fill:#c4cecc" /><path
           class="st18"
           d="m 116.45,218.56 h -1.22 c -0.03,0 -0.05,-0.02 -0.05,-0.05 0,-0.03 0.02,-0.05 0.05,-0.05 h 1.22 c 0.03,0 0.05,0.02 0.05,0.05 0,0.02 -0.02,0.05 -0.05,0.05"
           clip-path="url(#SVGID_8_)"
           id="path210"
           inkscape:connector-curvature="0"
           style="fill:#c4cecc" /><path
           class="st18"
           d="m 116.56,218.83 h -1.22 c -0.03,0 -0.05,-0.02 -0.05,-0.05 0,-0.03 0.02,-0.05 0.05,-0.05 h 1.22 c 0.03,0 0.05,0.02 0.05,0.05 0,0.03 -0.02,0.05 -0.05,0.05"
           clip-path="url(#SVGID_8_)"
           id="path212"
           inkscape:connector-curvature="0"
           style="fill:#c4cecc" /><path
           class="st18"
           d="m 116.66,219.11 h -1.22 c -0.03,0 -0.05,-0.02 -0.05,-0.05 0,-0.03 0.02,-0.05 0.05,-0.05 h 1.22 c 0.03,0 0.05,0.02 0.05,0.05 0,0.03 -0.02,0.05 -0.05,0.05"
           clip-path="url(#SVGID_8_)"
           id="path214"
           inkscape:connector-curvature="0"
           style="fill:#c4cecc" /><path
           class="st18"
           d="m 116.76,219.39 h -1.22 c -0.03,0 -0.05,-0.02 -0.05,-0.05 0,-0.03 0.02,-0.05 0.05,-0.05 h 1.22 c 0.03,0 0.05,0.02 0.05,0.05 0,0.03 -0.02,0.05 -0.05,0.05"
           clip-path="url(#SVGID_8_)"
           id="path216"
           inkscape:connector-curvature="0"
           style="fill:#c4cecc" /><path
           class="st18"
           d="m 116.9,219.67 h -1.22 c -0.03,0 -0.05,-0.02 -0.05,-0.05 0,-0.03 0.02,-0.05 0.05,-0.05 h 1.22 c 0.03,0 0.05,0.02 0.05,0.05 0,0.02 -0.02,0.05 -0.05,0.05"
           clip-path="url(#SVGID_8_)"
           id="path218"
           inkscape:connector-curvature="0"
           style="fill:#c4cecc" /><path
           class="st18"
           d="m 116.85,219.61 -0.77,-2.19 c -0.01,-0.03 0,-0.05 0.03,-0.06 0.03,-0.01 0.05,0 0.06,0.03 l 0.77,2.19 c 0.01,0.03 0,0.05 -0.03,0.06 -0.02,0.01 -0.05,0 -0.06,-0.03"
           clip-path="url(#SVGID_8_)"
           id="path220"
           inkscape:connector-curvature="0"
           style="fill:#c4cecc" /><path
           class="st18"
           d="m 97.92,215.16 h -5.11 c -0.13,0 -0.23,-0.1 -0.23,-0.23 0,-0.13 0.1,-0.23 0.23,-0.23 h 5.11 c 0.13,0 0.23,0.1 0.23,0.23 0,0.13 -0.1,0.23 -0.23,0.23"
           clip-path="url(#SVGID_8_)"
           id="path222"
           inkscape:connector-curvature="0"
           style="fill:#c4cecc" /><path
           class="st21"
           d="m 97.92,215.16 h -5.11 c -0.13,0 -0.23,-0.1 -0.23,-0.23 0,-0.13 0.1,-0.23 0.23,-0.23 h 5.11 c 0.13,0 0.23,0.1 0.23,0.23 0,0.13 -0.1,0.23 -0.23,0.23 z"
           clip-path="url(#SVGID_8_)"
           id="path224"
           inkscape:connector-curvature="0"
           style="fill:none;stroke:#9d9d9c;stroke-width:0.3017;stroke-miterlimit:10" /><path
           class="st16"
           d="m 98.03,221.86 h -0.79 c -0.1,0 -0.18,-0.08 -0.18,-0.18 0,-0.1 0.08,-0.18 0.18,-0.18 h 0.79 c 0.1,0 0.18,0.08 0.18,0.18 0,0.1 -0.08,0.18 -0.18,0.18"
           clip-path="url(#SVGID_8_)"
           id="path226"
           inkscape:connector-curvature="0"
           style="fill:#70868f" /><path
           class="st16"
           d="m 97.95,220.5 h -4.41 c -0.04,0 -0.07,-0.03 -0.07,-0.07 0,-0.04 0.03,-0.07 0.07,-0.07 h 4.41 c 0.04,0 0.07,0.03 0.07,0.07 0,0.04 -0.03,0.07 -0.07,0.07"
           clip-path="url(#SVGID_8_)"
           id="path228"
           inkscape:connector-curvature="0"
           style="fill:#70868f" /></g></g></g></svg>