<svg id="Ebene_1" data-name="Ebene 1" xmlns="http://www.w3.org/2000/svg" viewBox="0 0 283.87 370.68"><defs><style>.cls-1{fill:#ededed;}.cls-2{fill:#b2b2b2;}.cls-3{fill:#70868f;}.cls-4{fill:#f8fafa;}.cls-5,.cls-8{fill:#c4cecc;}.cls-6{fill:#dadada;}.cls-7{fill:#eb6763;}.cls-8{stroke:#9d9d9c;stroke-miterlimit:10;stroke-width:2px;}</style></defs><path class="cls-1" d="M246.73,331.29c16-6.75,32.74-9.53,49.93-9.63,22.2-.14,43.46,4.2,63.29,14.57-6.85,4.29-13.75,10.55-21.81,9.68-13.19-1.42-19.89,3.92-23.73,15.7-1.14,3.48-.54,4.48,2.45,5.83,7.82,3.51,15.49,2.62,23.27,0,3-1,6.12-2,9.27-.76,8.57,3.31,17.78,4.27,26.44,6.92,8.41,2.58,14.41.23,20.36-4.87l3.77-3.25a99.69,99.69,0,0,1,21.48,29.27c-8.6,3-17,6.69-25.84,8.86-11.12,2.74-21.95-1.82-32.91-3.14a2.35,2.35,0,0,1-2.16-1.81c-1-4.3-4.89-6.6-6.84-10.23-1.53-2.82-4-3.65-7.11-3.6-6.64.09-13.29,0-19.94.07-4,0-18.22,12-19,15.95a4.4,4.4,0,0,0-.08,1.49q2.24,14.76,4.52,29.52a4.39,4.39,0,0,0,2.73,3.81c9.33,3.91,18.64,7.85,27.9,11.92a11.07,11.07,0,0,0,8.12.49c3.8-1.13,7.74-1.83,11.64-2.66,7.52-1.6,11.56,4.87,17,7.78,2.76,1.47,1.29,5.56,1.27,8.44-.05,6.53.23,12.77,3.6,18.77,4.62,8.24,8.47,16.89,12.76,25.31,2.38,4.68,4.09,9.51,3.46,14.81-.92,7.76.61,14.39,7.36,19.25,2.11,1.52,3.68,3.79,5.49,5.71a128.88,128.88,0,0,1-44.22,40.89c-36.78,20.93-75.51,24.69-115.93,12.28-53.34-16.38-94.65-69.89-97.37-125.84-1-20.37,1.69-40.08,8.9-59.16.57-1.52.77-3.27,2.26-4.31,2.47,7,4.95,14.07,7.38,21.11.66,1.91,1.21,3.88,3,5,7.92,5.14,15.89,10.22,23.83,15.35,2.07,1.34,3.37,1.33,3.46-1.6.23-8.15.9-16.08-7.22-21.88-5.25-3.75-2.79-10.28-2.25-15.42.44-4.15,5.19-3.14,8.29-3.61,9-1.38,18.69-.91,26.88-4.71,14.54-6.75,27.69-15.83,34.05-31.66,1.91-4.76,5-7.95,10-8.58,7.75-1,10.18-6.34,11.78-12.82.7-2.86.16-4.37-3-4.86-7.37-1.14-14.78-2.19-22.05-3.84C255,340.5,249.87,337.15,246.73,331.29ZM229.06,529.38c.49,10.23-1.94,21.88,3.87,32.63,1.34,2.47,2.94,5,3.4,7.71,1.37,7.89,7.49,8.84,13.58,10.09,2.59.54,3.7-.38,3.66-3.06-.08-5.32.11-10.64,0-16a7.44,7.44,0,0,1,3.42-6.69c4.41-3.25,8.57-6.82,13-10.1,1.89-1.42,3.28-3.07,2.83-5.4-1.75-9.23,2.92-15.36,9.54-20.75a55.66,55.66,0,0,0,6.31-6.35c1.52-1.71,3.69-2.94,4.2-5.44,1.22-6,2.47-12,3.68-18,.67-3.33-.9-4.53-4.08-4.44-3.66.1-7.32-.12-11,.06-2.49.12-3.86-.77-5.1-3-3.43-6.07-7.44-11.81-10.71-18-1.63-3.06-3.75-3.8-6.8-3.78-8.14,0-16.29-.27-24.43,0-4.37.17-6.76-1.49-8.28-5.43-1.19-3.08-3-5.94-4.37-8.95-1.67-3.58-3.37-4.44-6.47-1.08-5.3,5.72-10.87,11.21-16.52,16.6-2.6,2.49-3.5,5.34-3.9,8.81-1.1,9.67,4.35,17.11,8.06,25.16a7.93,7.93,0,0,0,6.06,4.64c5,1,10,2.27,15.09,3.15,3.54.62,5.16,2.22,5,6C228.91,514.65,229.06,521.47,229.06,529.38Z" transform="translate(-155.7 -235.1)"/><path class="cls-2" d="M413.42,545.53c-1.81-1.92-3.38-4.19-5.49-5.71-6.75-4.86-8.28-11.49-7.36-19.25.63-5.3-1.08-10.13-3.46-14.81-4.29-8.42-8.14-17.07-12.76-25.31-3.37-6-3.65-12.24-3.6-18.77,0-2.88,1.49-7-1.27-8.44-5.48-2.91-9.52-9.38-17-7.78-3.9.83-7.84,1.53-11.64,2.66a11.07,11.07,0,0,1-8.12-.49c-9.26-4.07-18.57-8-27.9-11.92a4.39,4.39,0,0,1-2.73-3.81q-2.26-14.76-4.52-29.52a4.4,4.4,0,0,1,.08-1.49c.82-4,15-15.91,19-15.95,6.65-.06,13.3,0,19.94-.07,3.08-.05,5.58.78,7.11,3.6,1.95,3.63,5.88,5.93,6.84,10.23a2.35,2.35,0,0,0,2.16,1.81c11,1.32,21.79,5.88,32.91,3.14,8.81-2.17,17.24-5.85,25.84-8.86,9.06,15.33,14.33,31.93,16.76,49.52,4.1,29.67-1.15,57.79-14.29,84.5C421,534.68,417,540,413.42,545.53Z" transform="translate(-155.7 -235.1)"/><path class="cls-2" d="M246.73,331.29c3.14,5.86,8.31,9.21,14.51,10.62,7.27,1.65,14.68,2.7,22.05,3.84,3.14.49,3.68,2,3,4.86-1.6,6.48-4,11.85-11.78,12.82-5,.63-8.11,3.82-10,8.58-6.36,15.83-19.51,24.91-34.05,31.66-8.19,3.8-17.86,3.33-26.88,4.71-3.1.47-7.85-.54-8.29,3.61-.54,5.14-3,11.67,2.25,15.42,8.12,5.8,7.45,13.73,7.22,21.88-.09,2.93-1.39,2.94-3.46,1.6-7.94-5.13-15.91-10.21-23.83-15.35-1.78-1.16-2.33-3.13-3-5-2.43-7-4.91-14.07-7.38-21.11C182.52,372,209.47,346.41,246.73,331.29Z" transform="translate(-155.7 -235.1)"/><path class="cls-2" d="M400,365.52l-3.77,3.25c-5.95,5.1-11.95,7.45-20.36,4.87C367.18,371,358,370,349.4,366.72c-3.15-1.22-6.27-.24-9.27.76-7.78,2.58-15.45,3.47-23.27,0-3-1.35-3.59-2.35-2.45-5.83,3.84-11.78,10.54-17.12,23.73-15.7,8.06.87,15-5.39,21.81-9.68A132.47,132.47,0,0,1,400,365.52Z" transform="translate(-155.7 -235.1)"/><path class="cls-2" d="M229.06,529.38c0-7.91-.15-14.73.06-21.54.12-3.76-1.5-5.36-5-6C219,501,214,499.73,209,498.71a7.93,7.93,0,0,1-6.06-4.64c-3.71-8.05-9.16-15.49-8.06-25.16.4-3.47,1.3-6.32,3.9-8.81,5.65-5.39,11.22-10.88,16.52-16.6,3.1-3.36,4.8-2.5,6.47,1.08,1.41,3,3.18,5.87,4.37,8.95,1.52,3.94,3.91,5.6,8.28,5.43,8.14-.3,16.29,0,24.43,0,3.05,0,5.17.72,6.8,3.78,3.27,6.15,7.28,11.89,10.71,18,1.24,2.21,2.61,3.1,5.1,3,3.65-.18,7.31,0,11-.06,3.18-.09,4.75,1.11,4.08,4.44-1.21,6-2.46,12-3.68,18-.51,2.5-2.68,3.73-4.2,5.44a55.66,55.66,0,0,1-6.31,6.35c-6.62,5.39-11.29,11.52-9.54,20.75.45,2.33-.94,4-2.83,5.4-4.39,3.28-8.55,6.85-13,10.1a7.44,7.44,0,0,0-3.42,6.69c.12,5.31-.07,10.63,0,16,0,2.68-1.07,3.6-3.66,3.06-6.09-1.25-12.21-2.2-13.58-10.09-.46-2.69-2.06-5.24-3.4-7.71C227.12,551.26,229.55,539.61,229.06,529.38Z" transform="translate(-155.7 -235.1)"/><path class="cls-3" d="M369.45,317.42c-.05,8.61-6.31,14.65-15,14.71a14.81,14.81,0,1,1,15-14.71Zm-24.11-.09a9.39,9.39,0,0,0,18.77.43c.08-5.29-3.75-9.57-8.64-9.68C349.52,307.94,345.44,311.67,345.34,317.33Z" transform="translate(-155.7 -235.1)"/><path class="cls-4" d="M345.34,317.33c.1-5.66,4.18-9.39,10.13-9.25,4.89.11,8.72,4.39,8.64,9.68a9.39,9.39,0,0,1-18.77-.43Zm9.28,5.61a5.62,5.62,0,0,0,5.82-5.66,5.7,5.7,0,1,0-11.39.36C349.05,320.28,351.47,323.25,354.62,322.94Z" transform="translate(-155.7 -235.1)"/><path class="cls-5" d="M354.62,322.94c-3.15.31-5.57-2.66-5.57-5.3a5.7,5.7,0,1,1,11.39-.36A5.62,5.62,0,0,1,354.62,322.94Z" transform="translate(-155.7 -235.1)"/><path class="cls-3" d="M256.59,317.42c-.06,8.61-6.32,14.65-15,14.71a14.81,14.81,0,1,1,15-14.71Zm-24.12-.09a9.39,9.39,0,0,0,18.78.43c.08-5.29-3.75-9.57-8.65-9.68C236.66,307.94,232.58,311.67,232.47,317.33Z" transform="translate(-155.7 -235.1)"/><path class="cls-4" d="M232.47,317.33c.11-5.66,4.19-9.39,10.13-9.25,4.9.11,8.73,4.39,8.65,9.68a9.39,9.39,0,0,1-18.78-.43Zm9.29,5.61a5.62,5.62,0,0,0,5.82-5.66,5.7,5.7,0,1,0-11.39.36C236.19,320.28,238.6,323.25,241.76,322.94Z" transform="translate(-155.7 -235.1)"/><path class="cls-5" d="M241.76,322.94c-3.16.31-5.57-2.66-5.57-5.3a5.7,5.7,0,1,1,11.39-.36A5.62,5.62,0,0,1,241.76,322.94Z" transform="translate(-155.7 -235.1)"/><path class="cls-6" d="M370.73,310.18c-5.55-6.73-17-2.49-24.89-3.64-7-.76-9.07,4.52-12.74,9.21-22.52,1.72-46.55-.06-69.57.56-3.73.08-4.24-.67-4.53-3.78l.13,0-.11-.11,0,.14A19.32,19.32,0,0,0,254,301a7.91,7.91,0,0,0-5.8-2.4c-5.15.08-11.93-1.47-15.42,1.12-1.5,1.88-4.27,3.28-4.55,6.12-6.35,13.69-3.88,7.88-18.92,8.95-.49-4.07-1-4.61-4.8-4.82a116.74,116.74,0,0,1,2.92-33.18c.24-5.95,35.45-1.06,42.48-2.53,3.31,0,6.62-.17,9.93-.08.63,7.09,0,14.26.23,21.37.65-7.12-.09-14.25.51-21.36l57.53,0c22.94-.08,45.89.19,68.83-.11a37.62,37.62,0,0,1,1,15.79,1,1,0,0,0,.21.66c.22.35.06,2.66,1.1,2.46,1.34.08,1.45,1,1.45,2,.15,5.17.47,9.9-2.18,14.23,0,1.29-.85,1.83-2.09,1.83-2,.32-6.05-1.16-5.75,2.11s-4.08,1.64-6.05,2.05C371.26,315.58,372.53,311.69,370.73,310.18ZM256.62,283.13c.64-.09,2.14.36,2.14-.58-.53-2.12-4.7-.71-6.48-.76C250.4,284.06,255.46,283.12,256.62,283.13Zm118.91,13.75c3.43-.17,3.34-5.73-.19-5.52C371.84,291.37,372.1,297.06,375.53,296.88Z" transform="translate(-155.7 -235.1)"/><path class="cls-4" d="M260.74,240.07l.06-1.44c.69-1.06,1.72-1.13,2.88-1.13q46.27,0,92.56,0c2,0,4,0,6,0,2.88.05,4.28,1.07,5.25,3.73.17.46.08,1.1.77,1.24h0a5,5,0,0,0,2.15.66,13.87,13.87,0,0,1,8.2,4.64c.87,1,.49,1.56-.68,1.76a7.2,7.2,0,0,1-1.23,0H262.38c-1.53,0-3.06-.07-4.58,0-1.34.08-1.76-.48-1.69-1.75s0-2.58,0-3.87c0-3.24-.24-2.95,2.91-3C259.75,241,260.67,241.28,260.74,240.07Z" transform="translate(-155.7 -235.1)"/><path class="cls-4" d="M254.43,240.4c.69,2.65.3,5.34.27,8,0,.83-.62,1.17-1.45,1.17q-12.39,0-24.77,0c-.91,0-1.26-.4-1.25-1.28,0-2.63.05-5.26.07-7.89Z" transform="translate(-155.7 -235.1)"/><path class="cls-5" d="M368.24,242.5c-.69-.14-.6-.78-.77-1.24-1-2.66-2.37-3.68-5.25-3.73-2,0-4,0-6,0q-46.29,0-92.56,0c-1.16,0-2.19.07-2.88,1.13-.39-1.88.84-1.76,2.09-1.76h99.24C366.14,236.89,367.87,238.47,368.24,242.5Z" transform="translate(-155.7 -235.1)"/><path class="cls-4" d="M389.05,311.21a9.1,9.1,0,0,0,1.54.23c3.83-.15,3.79,2.37,3.19,4.92a1.9,1.9,0,0,1-2.09,1.5c-2.05,0-4.1-.1-6.14,0a4.26,4.26,0,0,1-4.27-2.12c0-.46,0-.93,0-1.39-.07-2.8,0-2.81,2.74-2.87C385.71,311.45,387.41,311.83,389.05,311.21Z" transform="translate(-155.7 -235.1)"/><path class="cls-1" d="M204.53,310c4.41-.38,5.66,3.37,4,7.1-2.22,1.38-5.72,1-8.27,0C198.52,313.47,200.2,309.18,204.53,310Z" transform="translate(-155.7 -235.1)"/><path class="cls-4" d="M222.7,241c3.17,0,3.17,0,3.18,3.29,0,1.29,0,2.58,0,3.86.05,1.08-.43,1.44-1.46,1.43-1.75,0-3.5,0-5.26.07l-.79-.15,0-2C219,244.78,220,242.31,222.7,241Z" transform="translate(-155.7 -235.1)"/><path class="cls-6" d="M206,287.94c-.18,2.83-.41,9.54-4.79,8.59C202.13,292.59,199.05,282.4,206,287.94Z" transform="translate(-155.7 -235.1)"/><path class="cls-3" d="M217,259.37a79.66,79.66,0,0,1-3.81,9,1.07,1.07,0,0,1-.88-1.58c1-2.61,2.1-5.2,3.18-7.79.18-.44.46-.92,1-.83S216.89,259,217,259.37Z" transform="translate(-155.7 -235.1)"/><path class="cls-5" d="M201.47,288.13c1.3,2.53-.26,5.74.08,8.5C199.48,296.8,199.76,288.64,201.47,288.13Z" transform="translate(-155.7 -235.1)"/><path class="cls-5" d="M218.41,247.46l0,2C217.47,248.82,217.4,248.13,218.41,247.46Z" transform="translate(-155.7 -235.1)"/><path class="cls-5" d="M201.14,287.2c-.07.14-.15.28-.23.42C201,287.48,201.07,287.34,201.14,287.2Z" transform="translate(-155.7 -235.1)"/><path class="cls-5" d="M380.88,250.94a.55.55,0,0,1-.25-.1Z" transform="translate(-155.7 -235.1)"/><path class="cls-3" d="M229,269.77c-3.49-.18.29,5.14-2.91,4.4,1.11-3.76-5.23-13.25,2-13.48C230.74,262.93,229.53,267,229,269.77Z" transform="translate(-155.7 -235.1)"/><path class="cls-4" d="M375.53,296.88a2.69,2.69,0,0,1-2.74-2.59,2.62,2.62,0,0,1,2.55-2.93,2.7,2.7,0,0,1,2.8,2.73A2.89,2.89,0,0,1,375.53,296.88Z" transform="translate(-155.7 -235.1)"/><path class="cls-5" d="M227.5,274.09a3,3,0,0,1,2-.31h26.25c.63,0,1.31-.15,1.85.36-2.57,0-5.14.1-7.71.11q-10.17,0-20.35,0C228.89,274.25,228.19,274.15,227.5,274.09Z" transform="translate(-155.7 -235.1)"/><path class="cls-5" d="M259,312.52l0-.14.11.11-.13,0Z" transform="translate(-155.7 -235.1)"/><path class="cls-7" d="M388.08,276.71a3,3,0,0,1,0,2.2A2.13,2.13,0,0,1,388.08,276.71Z" transform="translate(-155.7 -235.1)"/><path class="cls-4" d="M387.72,272.66a83.15,83.15,0,0,0-2.53-10.87,87.48,87.48,0,0,0-4.31-10.85.55.55,0,0,1-.25-.1l-1.45-.05c-6.87,0-13.74.11-20.61.12h-99.9q-18,0-36.1,0a3.44,3.44,0,0,0-2.59.79,65.51,65.51,0,0,1-3,7.68,79.66,79.66,0,0,1-3.81,9,2.34,2.34,0,0,1-1.06,2.36c-1.14,1-2.79,1.61-3.16,3.36l17.07,0c0-1.47.88-3.05-.52-4.37a47.91,47.91,0,0,1-7.67.13c-1.47,0-1.94-.93-1.41-2.65a48.49,48.49,0,0,1,2.65-6.81c.81-2.31,1.6-4.61,2.43-6.91.36-1,1.24-1.17,2.17-1.17h32.41c1.21,0,1.86.54,1.86,1.81,0,4.51,0,9,0,13.54,0,1-.33,1.74-1.43,1.89l-.13,0-.12,0a1.87,1.87,0,0,1-1.47.26H252.6l-19.31,0h-.77a12.15,12.15,0,0,1-3.56-.14c-1.34,0-1.76.77-1.64,2,.08.8.09,1.6.13,2.39l.05-.07a3,3,0,0,1,2-.31h26.25c.63,0,1.31-.15,1.85.36l2.22,0h.74l57.53,0q30.28,0,60.56,0c2.76,0,5.51-.08,8.27-.13l.63,0A1.65,1.65,0,0,0,387.72,272.66Zm-76.06-2.37c-7.92,0-15.84,0-23.77,0v0c-7.87,0-15.73,0-23.6,0-1.21,0-1.82-.23-1.8-1.62.06-4.87,0-9.73,0-14.6,0-1.27.48-1.76,1.77-1.76q23.78,0,47.55,0c1.33,0,1.77.6,1.77,1.8,0,4.86,0,9.73,0,14.59C313.61,270.22,312.77,270.29,311.66,270.29Zm56.44,0q-1.14,0-2.28,0-22.6,0-45.19,0c-.8,0-2.05.51-2.08-1.09l-.08-1a2,2,0,0,1,0-2.09V265a51.31,51.31,0,0,1,0-11.62c.15-1.4,1.24-1,2-1q15.67,0,31.36,0c2.87,0,5.75.08,8.63,0a3.6,3.6,0,0,1,3.44,1.63c1.53,2.28,3,4.61,3.31,7.43a16.85,16.85,0,0,1,2,7.82C369.26,270,368.78,270.25,368.1,270.27Z" transform="translate(-155.7 -235.1)"/><rect class="cls-5" x="213.37" y="18.58" width="8.73" height="0.65" rx="0.33"/><rect class="cls-5" x="214.08" y="20.42" width="8.73" height="0.65" rx="0.33"/><rect class="cls-5" x="214.61" y="22.26" width="8.73" height="0.65" rx="0.33"/><rect class="cls-5" x="215.29" y="24.1" width="8.73" height="0.65" rx="0.33"/><rect class="cls-5" x="215.97" y="25.94" width="8.73" height="0.65" rx="0.33"/><rect class="cls-5" x="216.71" y="27.78" width="8.73" height="0.65" rx="0.33"/><rect class="cls-5" x="217.35" y="29.62" width="8.73" height="0.65" rx="0.33"/><rect class="cls-5" x="218.03" y="31.46" width="8.73" height="0.65" rx="0.33"/><rect class="cls-5" x="218.95" y="33.3" width="8.73" height="0.65" rx="0.33"/><rect class="cls-5" x="372.45" y="260.98" width="16.06" height="0.65" rx="0.33" transform="translate(345.22 -419.37) rotate(70.65)"/><rect class="cls-8" x="66.17" y="1" width="36.91" height="3.06" rx="1.53"/><rect class="cls-3" x="95.89" y="46.14" width="7.56" height="2.35" rx="1.18"/><rect class="cls-3" x="72.01" y="38.53" width="30.19" height="0.94" rx="0.47"/></svg>